<?xml version="1.0" encoding="UTF-8" standalone="no"?>
<!-- Created with Inkscape (http://www.inkscape.org/) -->

<svg
   xmlns:dc="http://purl.org/dc/elements/1.1/"
   xmlns:cc="http://creativecommons.org/ns#"
   xmlns:rdf="http://www.w3.org/1999/02/22-rdf-syntax-ns#"
   xmlns:svg="http://www.w3.org/2000/svg"
   xmlns="http://www.w3.org/2000/svg"
   xmlns:sodipodi="http://sodipodi.sourceforge.net/DTD/sodipodi-0.dtd"
   xmlns:inkscape="http://www.inkscape.org/namespaces/inkscape"
   width="210mm"
   height="297mm"
   viewBox="0 0 744.09448819 1052.3622047"
   id="svg8308"
   version="1.1"
   inkscape:version="0.91 r13725"
   sodipodi:docname="footer.svg">
  <defs
     id="defs8310">
    <clipPath
       clipPathUnits="userSpaceOnUse"
       id="clipPath3086">
      <path
         d="m 0,6333.253 1620.274,0 L 1620.274,0 0,0 0,6333.253 Z"
         id="path3088"
         inkscape:connector-curvature="0" />
    </clipPath>
  </defs>
  <sodipodi:namedview
     id="base"
     pagecolor="#ffffff"
     bordercolor="#666666"
     borderopacity="1.0"
     inkscape:pageopacity="0.0"
     inkscape:pageshadow="2"
     inkscape:zoom="0.98994949"
     inkscape:cx="198.17655"
     inkscape:cy="652.29638"
     inkscape:document-units="px"
     inkscape:current-layer="layer1"
     showgrid="false"
     inkscape:window-width="959"
     inkscape:window-height="744"
     inkscape:window-x="65"
     inkscape:window-y="24"
     inkscape:window-maximized="1" />
  <metadata
     id="metadata8313">
    <rdf:RDF>
      <cc:Work
         rdf:about="">
        <dc:format>image/svg+xml</dc:format>
        <dc:type
           rdf:resource="http://purl.org/dc/dcmitype/StillImage" />
        <dc:title />
      </cc:Work>
    </rdf:RDF>
  </metadata>
  <g
     inkscape:label="Capa 1"
     inkscape:groupmode="layer"
     id="layer1">
    <path
       inkscape:connector-curvature="0"
       id="path3056"
       style="fill:#f16425;fill-opacity:1;fill-rule:nonzero;stroke:none"
       d="m 267.36369,224.61408 c -0.94887,0.41556 -1.96821,0.69382 -3.03987,0.82095 1.09418,-0.64513 1.93189,-1.66515 2.32786,-2.88277 -1.02225,0.59719 -2.15567,1.03164 -3.36173,1.26484 -0.9634,-1.01202 -2.33803,-1.64481 -3.8616,-1.64481 -2.92071,0 -5.28998,2.33282 -5.28998,5.20833 0,0.40902 0.0465,0.80497 0.13587,1.18638 -4.39634,-0.21722 -8.29644,-2.2914 -10.90546,-5.44153 -0.45555,0.76864 -0.71783,1.6637 -0.71783,2.61833 0,1.8061 0.93579,3.40005 2.35546,4.33579 -0.86749,-0.0291 -1.68413,-0.26372 -2.39615,-0.6524 l 0,0.0668 c 0,0.66548 0.1286,1.30117 0.36182,1.88746 0.64445,1.63174 2.09972,2.86607 3.88194,3.21915 -0.44465,0.11915 -0.91109,0.18308 -1.39497,0.18308 -0.34075,0 -0.67133,-0.0342 -0.99537,-0.0952 0.67496,2.06909 2.62865,3.57586 4.9427,3.61873 -1.81128,1.39634 -4.09191,2.22892 -6.57234,2.22892 -0.42721,0 -0.84715,-0.0239 -1.26201,-0.0734 2.34238,1.47844 5.12506,2.34008 8.11116,2.34008 8.271,0 13.35392,-5.73068 14.69512,-11.67423 0.23758,-1.05126 0.36037,-2.10905 0.36037,-3.14287 0,-0.22594 -0.007,-0.45116 -0.0145,-0.6742 1.03242,-0.73522 1.93043,-1.65135 2.63954,-2.69752"
       inkscape:export-filename="/var/www/html/tugruero/web/img/fresh/twitter.png"
       inkscape:export-xdpi="90"
       inkscape:export-ydpi="90" />
    <path
       inkscape:connector-curvature="0"
       id="path3060"
       style="fill:#f16425;fill-opacity:1;fill-rule:nonzero;stroke:none"
       d="m 254.4675,250.50656 c -9.95078,0 -18.01762,-8.06713 -18.01762,-18.01737 0,-9.95096 8.06684,-18.01663 18.01762,-18.01663 9.95005,0 18.01762,8.06567 18.01762,18.01663 0,9.95024 -8.06757,18.01737 -18.01762,18.01737 m 0,-38.01882 c -11.04568,0 -19.99964,8.95347 -19.99964,20.00145 0,11.04508 8.95396,19.99855 19.99964,19.99855 11.04568,0 20.00036,-8.95347 20.00036,-19.99855 0,-11.04798 -8.95468,-20.00145 -20.00036,-20.00145"
       inkscape:export-filename="/var/www/html/tugruero/web/img/fresh/twitter.png"
       inkscape:export-xdpi="90"
       inkscape:export-ydpi="90" />
    <text
       style="font-variant:normal;font-weight:500;font-stretch:normal;font-size:46.61562347px;font-family:'ITC Avant Garde Std Md';-inkscape-font-specification:ITCAvantGardeStd-Md;writing-mode:lr-tb;fill:#f16425;fill-opacity:1;fill-rule:nonzero;stroke:none"
       id="text2930"
       x="352.44952"
       y="686.6947">
      <tspan
         x="352.44952 377.99487 389.18262 421.11438 450.80844 480.36273 510.01041 540.54358"
         y="686.6947"
         sodipodi:role="line"
         id="tspan2932">Síguenos</tspan>
    </text>
    <g
       id="g3082"
       transform="matrix(0.6721982,0,0,-0.6721982,-455.19674,961.76722)"
       inkscape:export-xdpi="90"
       inkscape:export-ydpi="90">
      <g
         id="g3084"
         clip-path="url(#clipPath3086)">
        <g
           id="g3090"
           transform="translate(1124.0361,632.1464)">
          <path
             d="m 0,0 c 0,-2.331 1.438,-2.739 2.087,-2.739 1.221,0 1.953,1.004 1.953,1.925 0,1.057 -0.841,1.382 -3.931,2.684 -1.409,0.568 -4.907,1.978 -4.907,5.746 0,4.039 3.66,6.181 7.023,6.181 2.762,0 6.667,-1.41 6.749,-6.236 l -5.071,0 C 3.795,8.24 3.633,9.513 2.062,9.513 1.167,9.513 0.299,8.889 0.299,7.941 c 0,-0.923 0.543,-1.166 4.147,-2.792 3.741,-1.68 4.69,-3.416 4.69,-5.747 0,-3.199 -1.682,-6.423 -6.995,-6.423 -5.257,0 -7.373,3.089 -7.237,7.021 L 0,0 Z"
             style="fill:#f16425;fill-opacity:1;fill-rule:nonzero;stroke:none"
             id="path3092"
             inkscape:connector-curvature="0" />
        </g>
        <g
           id="g3094"
           transform="translate(1135.6122,645.5635)">
          <path
             d="m 0,0 11.358,0 0,-4.5 -6.235,0 0,-3.119 6.045,0 0,-4.497 -6.045,0 0,-3.444 6.235,0 0,-4.5 L 0,-20.06 0,0 Z"
             style="fill:#f16425;fill-opacity:1;fill-rule:nonzero;stroke:none"
             id="path3096"
             inkscape:connector-curvature="0" />
        </g>
        <g
           id="g3098"
           transform="translate(1149.9254,645.5635)">
          <path
             d="m 0,0 6.561,0 c 3.145,0 5.096,-0.57 6.207,-1.436 1.681,-1.303 2.439,-3.281 2.439,-5.476 0,-1.546 -0.433,-2.738 -1.002,-3.632 -0.677,-1.057 -1.653,-1.736 -2.602,-2.142 l 4.148,-7.374 -5.286,0 -5.232,9.677 0.839,0 c 1.303,0 2.414,0.109 3.091,0.542 0.624,0.406 1.139,1.357 1.139,2.467 0,1.058 -0.515,1.898 -1.194,2.331 C 8.539,-4.69 7.728,-4.5 7.021,-4.5 l -1.897,0 0,-15.56 L 0,-20.06 0,0 Z"
             style="fill:#f16425;fill-opacity:1;fill-rule:nonzero;stroke:none"
             id="path3100"
             inkscape:connector-curvature="0" />
        </g>
        <g
           id="g3102"
           transform="translate(1165.5708,645.5635)">
          <path
             d="M 0,0 5.257,0 9.323,-14.069 13.416,0 l 5.286,0 -6.721,-20.06 -5.286,0 L 0,0 Z"
             style="fill:#f16425;fill-opacity:1;fill-rule:nonzero;stroke:none"
             id="path3104"
             inkscape:connector-curvature="0" />
        </g>
        <path
           d="m 1186.524,645.563 5.123,0 0,-20.06 -5.123,0 0,20.06 z"
           style="fill:#f16425;fill-opacity:1;fill-rule:nonzero;stroke:none"
           id="path3106"
           inkscape:connector-curvature="0" />
        <g
           id="g3108"
           transform="translate(1215.1775,633.0117)">
          <path
             d="m 0,0 c -1.167,-4.742 -5.286,-7.887 -10.14,-7.887 -6.287,0 -10.569,5.016 -10.569,10.436 0,5.124 3.956,10.382 10.516,10.382 6.289,0 9.65,-4.852 10.193,-7.998 l -5.367,0 c -0.571,1.492 -2.088,3.498 -4.854,3.498 -3.442,0 -5.365,-3.008 -5.365,-5.854 0,-3.036 2.06,-5.963 5.393,-5.963 3.198,0 4.501,2.683 4.826,3.386 L 0,0 Z"
             style="fill:#f16425;fill-opacity:1;fill-rule:nonzero;stroke:none"
             id="path3110"
             inkscape:connector-curvature="0" />
        </g>
        <path
           d="m 1217.837,645.563 5.121,0 0,-20.06 -5.121,0 0,20.06 z"
           style="fill:#f16425;fill-opacity:1;fill-rule:nonzero;stroke:none"
           id="path3112"
           inkscape:connector-curvature="0" />
        <g
           id="g3114"
           transform="translate(1230.8478,635.5607)">
          <path
             d="m 0,0 c 0,-3.064 2.088,-5.935 5.529,-5.935 3.632,0 5.395,3.306 5.395,5.88 0,2.604 -1.763,5.937 -5.449,5.937 C 1.923,5.882 0,2.846 0,0.028 L 0,0 Z m -5.124,-0.244 c 0,6.56 5.042,10.626 10.572,10.626 6.18,0 10.599,-4.825 10.599,-10.409 0,-5.583 -4.391,-10.409 -10.627,-10.409 -6.316,0 -10.544,5.016 -10.544,10.165 l 0,0.027 z"
             style="fill:#f16425;fill-opacity:1;fill-rule:nonzero;stroke:none"
             id="path3116"
             inkscape:connector-curvature="0" />
        </g>
        <g
           id="g3118"
           transform="translate(1263.1611,630.0037)">
          <path
             d="M 0,0 2.196,0 C 6.019,0 7.102,2.658 7.102,5.502 7.102,6.641 6.858,8.079 6.126,9.215 5.531,10.11 4.5,11.059 2.222,11.059 L 0,11.059 0,0 Z m -5.123,15.56 6.64,0 c 2.25,0 6.264,0 8.865,-3.743 1.382,-1.895 1.843,-4.038 1.843,-6.232 0,-5.476 -2.711,-10.086 -10.328,-10.086 l -7.02,0 0,20.061 z"
             style="fill:#f16425;fill-opacity:1;fill-rule:nonzero;stroke:none"
             id="path3120"
             inkscape:connector-curvature="0" />
        </g>
        <g
           id="g3122"
           transform="translate(1278.1544,645.5635)">
          <path
             d="m 0,0 11.357,0 0,-4.5 -6.236,0 0,-3.119 6.046,0 0,-4.497 -6.046,0 0,-3.444 6.236,0 0,-4.5 L 0,-20.06 0,0 Z"
             style="fill:#f16425;fill-opacity:1;fill-rule:nonzero;stroke:none"
             id="path3124"
             inkscape:connector-curvature="0" />
        </g>
        <g
           id="g3126"
           transform="translate(1301.2227,641.0631)">
          <path
             d="m 0,0 -3.957,0 0,4.5 13.012,0 0,-4.5 -3.931,0 0,-15.56 L 0,-15.56 0,0 Z"
             style="fill:#f16425;fill-opacity:1;fill-rule:nonzero;stroke:none"
             id="path3128"
             inkscape:connector-curvature="0" />
        </g>
        <g
           id="g3130"
           transform="translate(1319.0605,639.4649)">
          <path
             d="m 0,0 -2.168,-6.993 4.417,0 L 0,0 Z m -4.365,-13.962 -5.557,0 7.944,20.061 4.417,0 7.698,-20.061 -5.61,0 -0.949,2.902 -7.022,0 -0.921,-2.902 z"
             style="fill:#f16425;fill-opacity:1;fill-rule:nonzero;stroke:none"
             id="path3132"
             inkscape:connector-curvature="0" />
        </g>
        <g
           id="g3134"
           transform="translate(1336.7633,636.1845)">
          <path
             d="m 0,0 -6.208,9.379 5.802,0 3.442,-5.72 3.333,5.72 5.774,0 -6.126,-9.488 6.939,-10.572 -5.801,0 -4.337,7.102 -4.119,-7.102 -5.72,0 L 0,0 Z"
             style="fill:#f16425;fill-opacity:1;fill-rule:nonzero;stroke:none"
             id="path3136"
             inkscape:connector-curvature="0" />
        </g>
        <path
           d="m 1351.836,645.563 5.123,0 0,-20.06 -5.123,0 0,20.06 z"
           style="fill:#f16425;fill-opacity:1;fill-rule:nonzero;stroke:none"
           id="path3138"
           inkscape:connector-curvature="0" />
        <g
           id="g3140"
           transform="translate(1237.9442,671.328)">
          <path
             d="m 0,0 c -27.763,0 -50.274,22.512 -50.274,50.278 0,27.767 22.511,50.279 50.274,50.279 27.77,0 50.279,-22.512 50.279,-50.279 C 50.279,22.512 27.77,0 0,0 m 0,106.092 c -30.82,0 -55.807,-24.986 -55.807,-55.814 0,-30.82 24.987,-55.807 55.807,-55.807 30.824,0 55.811,24.987 55.811,55.807 0,30.828 -24.987,55.814 -55.811,55.814"
             style="fill:#f16425;fill-opacity:1;fill-rule:nonzero;stroke:none"
             id="path3142"
             inkscape:connector-curvature="0" />
        </g>
        <g
           id="g3144"
           transform="translate(1238.0134,742.8713)">
          <path
             d="m 0,0 -8.324,0 -2.814,-3.651 13.952,0 L 0,0 Z m 30.493,-16.004 5.439,-1.217 c -2.025,0.46 -4.094,0.922 -5.439,1.217 m -6.845,-21.749 c -2.824,0 -5.126,2.301 -5.126,5.129 0,2.832 2.302,5.129 5.126,5.129 2.832,0 5.135,-2.297 5.135,-5.129 0,-2.828 -2.303,-5.129 -5.135,-5.129 m -25.343,22.077 0,7.733 4.983,0 c 2.372,0 11.986,-5.585 15.596,-7.733 l -20.579,0 z m -4.184,0 -17.206,0 c 1.247,0.984 2.392,2.028 3.454,2.995 2.786,2.538 5.192,4.734 8.071,4.734 l 5.681,0 0,-7.729 z m -19.044,-22.077 c -2.825,0 -5.13,2.301 -5.13,5.129 0,2.832 2.303,5.129 5.13,5.129 2.83,0 5.129,-2.297 5.129,-5.129 0,-2.828 -2.299,-5.129 -5.129,-5.129 m 66.959,19.038 c -0.653,0.219 -2.852,0.745 -5.262,1.301 l -8.316,2.041 c -3.294,1.866 -20.85,11.722 -23.145,11.722 -2.539,0 -19.944,-0.006 -19.944,-0.006 -4.25,0 -7.807,-3.241 -11.922,-6.998 -1.936,-1.766 -4.078,-3.71 -6.442,-5.441 l -8.791,-1.171 c -1.27,-0.402 -2.186,-1.594 -2.186,-2.998 l 0,-10.073 c 0,-1.738 1.407,-3.15 3.146,-3.15 l 6.042,0 c 0.435,-5.059 4.693,-9.034 9.861,-9.034 5.17,0 9.423,3.982 9.865,9.034 l 28.846,0 c 0.438,-5.059 4.696,-9.034 9.86,-9.034 5.173,0 9.423,3.982 9.866,9.034 l 4.965,0 c 3.931,0 5.853,1.7 6.337,3.297 1.217,4.034 0.34,10.432 -2.78,11.476"
             style="fill:#f16425;fill-opacity:1;fill-rule:nonzero;stroke:none"
             id="path3146"
             inkscape:connector-curvature="0" />
        </g>
      </g>
    </g>
    <rect
       style="opacity:1;fill:#000000;fill-opacity:1;stroke:#000000;stroke-opacity:1"
       id="rect3407"
       width="208.09143"
       height="90.913727"
       x="483.86307"
       y="424.10315" />
    <circle
       style="opacity:1;fill:#ffffff;fill-opacity:1;stroke:#000000;stroke-width:0.94619334;stroke-opacity:0"
       id="path4315-3"
       cx="593.96973"
       cy="473.5448"
       r="31.526903" />
    <circle
       style="opacity:1;fill:#ffffff;fill-opacity:1;stroke:#000000;stroke-width:0.94619334;stroke-opacity:0"
       id="path4315-56"
       cx="654.57886"
       cy="475.56509"
       r="31.526903" />
    <rect
       style="opacity:1;fill:#000000;fill-opacity:1;stroke:#000000;stroke-width:1.32991421;stroke-opacity:1"
       id="rect3407-2"
       width="369.38593"
       height="90.583809"
       x="-32.159901"
       y="381.78589" />
    <g
       id="g4381"
       inkscape:export-xdpi="90"
       inkscape:export-ydpi="90"
       transform="matrix(0.5812095,0,0,0.58120527,16.254683,215.00964)">
      <circle
         r="31.526903"
         cy="358.99402"
         cx="169.81477"
         id="path4315"
         style="opacity:1;fill:#ffffff;fill-opacity:1;stroke:#000000;stroke-width:0.94619334;stroke-opacity:0" />
      <path
         inkscape:export-ydpi="90"
         inkscape:export-xdpi="90"
         inkscape:export-filename="/var/www/html/tugruero/web/img/fresh/twitter.png"
         d="m 191.8925,344.84029 c -1.6325,0.715 -3.38625,1.19375 -5.23,1.4125 1.8825,-1.11 3.32375,-2.865 4.005,-4.96 -1.75875,1.0275 -3.70875,1.775 -5.78375,2.17625 -1.6575,-1.74125 -4.0225,-2.83 -6.64375,-2.83 -5.025,0 -9.10125,4.01375 -9.10125,8.96125 0,0.70375 0.08,1.385 0.23375,2.04125 -7.56375,-0.37375 -14.27375,-3.9425 -18.7625,-9.3625 -0.78375,1.3225 -1.235,2.8625 -1.235,4.505 0,3.1075 1.61,5.85 4.0525,7.46 -1.4925,-0.05 -2.8975,-0.45375 -4.1225,-1.1225 l 0,0.115 c 0,1.145 0.22125,2.23875 0.6225,3.2475 1.10875,2.8075 3.6125,4.93125 6.67875,5.53875 -0.765,0.205 -1.5675,0.315 -2.4,0.315 -0.58625,0 -1.155,-0.0588 -1.7125,-0.16375 1.16125,3.56 4.5225,6.1525 8.50375,6.22625 -3.11625,2.4025 -7.04,3.835 -11.3075,3.835 -0.735,0 -1.4575,-0.0412 -2.17125,-0.12625 4.03,2.54375 8.8175,4.02625 13.955,4.02625 14.23,0 22.975,-9.86 25.2825,-20.08625 0.40875,-1.80875 0.62,-3.62875 0.62,-5.4075 0,-0.38875 -0.0125,-0.77625 -0.025,-1.16 1.77625,-1.265 3.32125,-2.84125 4.54125,-4.64125"
         style="fill:#f16425;fill-opacity:1;fill-rule:nonzero;stroke:none"
         id="path3056-6"
         inkscape:connector-curvature="0" />
      <path
         inkscape:export-ydpi="90"
         inkscape:export-xdpi="90"
         inkscape:export-filename="/var/www/html/tugruero/web/img/fresh/twitter.png"
         d="m 169.70662,389.38991 c -17.1208,0 -31.00021,-13.88 -31.00021,-31 0,-17.12125 13.87941,-30.99875 31.00021,-30.99875 17.11956,0 31.00022,13.8775 31.00022,30.99875 0,17.12 -13.88066,31 -31.00022,31 m 0,-65.41375 c -19.00464,0 -34.41037,15.405 -34.41037,34.41375 0,19.00375 15.40573,34.40875 34.41037,34.40875 19.00465,0 34.41163,-15.405 34.41163,-34.40875 0,-19.00875 -15.40698,-34.41375 -34.41163,-34.41375"
         style="fill:#f16425;fill-opacity:1;fill-rule:nonzero;stroke:none"
         id="path3060-7"
         inkscape:connector-curvature="0" />
    </g>
    <g
       id="g4376"
       transform="matrix(0.58123694,0,0,0.58120527,-60.564317,285.85827)"
       inkscape:export-xdpi="90"
       inkscape:export-ydpi="90">
      <circle
         r="31.526903"
         cy="246.26045"
         cx="421.23361"
         id="path4315-5"
         style="opacity:1;fill:#ffffff;fill-opacity:1;stroke:#000000;stroke-width:0.94619334;stroke-opacity:0" />
      <path
         inkscape:export-ydpi="90"
         inkscape:export-xdpi="90"
         inkscape:export-filename="/var/www/html/tugruero/web/img/fresh/facebook.png"
         d="m 424.50184,236.47636 0,-3.55 c 0,-1.72875 1.15125,-2.12875 1.96,-2.12875 l 4.98,0 0,-7.605 -6.8575,-0.0288 c -7.60875,0 -9.3375,5.6725 -9.3375,9.30125 l 0,4.01125 -4.40125,0 0,5.36125 0,3.51375 4.4375,0 0,22.18625 8.87625,0 0,-22.18625 6.585,0 0.3175,-3.48625 0.4925,-5.38875 -7.0525,0 z"
         style="fill:#f16425;fill-opacity:1;fill-rule:nonzero;stroke:none"
         id="path3064"
         inkscape:connector-curvature="0" />
      <path
         inkscape:export-ydpi="90"
         inkscape:export-xdpi="90"
         inkscape:export-filename="/var/www/html/tugruero/web/img/fresh/facebook.png"
         d="m 421.19984,276.35311 c -17.1175,0 -30.99875,-13.88 -30.99875,-31 0,-17.12125 13.88125,-30.99875 30.99875,-30.99875 17.12125,0 31,13.8775 31,30.99875 0,17.12 -13.87875,31 -31,31 m 0,-65.41375 c -19.00375,0 -34.40875,15.405 -34.40875,34.41375 0,19.00375 15.405,34.40875 34.40875,34.40875 19.00375,0 34.41,-15.405 34.41,-34.40875 0,-19.00875 -15.40625,-34.41375 -34.41,-34.41375"
         style="fill:#f16425;fill-opacity:1;fill-rule:nonzero;stroke:none"
         id="path3068"
         inkscape:connector-curvature="0" />
    </g>
    <path
       inkscape:connector-curvature="0"
       id="path3064-2"
       style="fill:#f16425;fill-opacity:1;fill-rule:nonzero;stroke:none"
       d="m 367.32686,224.19924 0,-2.06328 c 0,-1.00476 0.66915,-1.23724 1.13923,-1.23724 l 2.89456,0 0,-4.42007 -3.98584,-0.0167 c -4.42248,0 -5.4273,3.29689 -5.4273,5.40594 l 0,2.33136 -2.55817,0 0,3.11599 0,2.04221 2.57924,0 0,12.89477 5.15921,0 0,-12.89477 3.82744,0 0.18455,-2.02623 0.28625,-3.13197 -4.09917,0 z"
       inkscape:export-filename="/var/www/html/tugruero/web/img/fresh/facebook.png"
       inkscape:export-xdpi="90"
       inkscape:export-ydpi="90" />
    <path
       inkscape:connector-curvature="0"
       id="path3068-7"
       style="fill:#f16425;fill-opacity:1;fill-rule:nonzero;stroke:none"
       d="m 365.40762,247.37582 c -9.94933,0 -18.01762,-8.06713 -18.01762,-18.01737 0,-9.95096 8.06829,-18.01664 18.01762,-18.01664 9.9515,0 18.01834,8.06568 18.01834,18.01664 0,9.95024 -8.06684,18.01737 -18.01834,18.01737 m 0,-38.01882 c -11.04568,0 -19.99964,8.95347 -19.99964,20.00145 0,11.04508 8.95396,19.99855 19.99964,19.99855 11.04568,0 20.00036,-8.95347 20.00036,-19.99855 0,-11.04798 -8.95468,-20.00145 -20.00036,-20.00145"
       inkscape:export-filename="/var/www/html/tugruero/web/img/fresh/facebook.png"
       inkscape:export-xdpi="90"
       inkscape:export-ydpi="90" />
    <g
       id="g4428"
       transform="matrix(0.58121583,0,0,0.58120527,-67.036023,318.503)"
       inkscape:export-xdpi="90"
       inkscape:export-ydpi="90">
      <circle
         r="31.526903"
         cy="198.78331"
         cx="598.01031"
         id="path4315-3-0"
         style="opacity:1;fill:#ffffff;fill-opacity:1;stroke:#000000;stroke-width:0.94619334;stroke-opacity:0" />
      <path
         inkscape:export-ydpi="90"
         inkscape:export-xdpi="90"
         inkscape:export-filename="/var/www/html/tugruero/web/img/fresh/instagram.png"
         d="m 615.83324,211.48457 c 0,2.34625 -1.90875,4.2525 -4.25375,4.2525 l -27.22125,0 c -2.34625,0 -4.25125,-1.90625 -4.25125,-4.2525 l 0,-15.8625 0,-2.30125 6.6225,0 c -0.16625,0.405 -0.30625,0.82625 -0.4275,1.2525 -0.29875,1.04875 -0.46375,2.15375 -0.46375,3.3 0,6.69125 5.44125,12.13125 12.1325,12.13125 6.69,0 12.13125,-5.44 12.13125,-12.13125 0,-1.14625 -0.165,-2.25125 -0.465,-3.3 -0.1225,-0.42625 -0.265,-0.8475 -0.42875,-1.2525 l 6.625,0 0,2.30125 0,15.8625 z m -24.1925,-18.16375 c 1.41875,-1.96875 3.72375,-3.255 6.33,-3.255 2.605,0 4.91,1.28625 6.33125,3.255 0.1725,0.23625 0.325,0.4875 0.46875,0.745 0.6375,1.1275 1.01,2.42625 1.01,3.8075 0,4.305 -3.5075,7.8075 -7.81,7.8075 -4.30625,0 -7.81,-3.5025 -7.81,-7.8075 0,-1.3825 0.3725,-2.68125 1.00875,-3.80875 0.14375,-0.25625 0.29875,-0.5075 0.47125,-0.74375 m 22.39875,-12.5175 0.98,-0.005 0,0.97875 0,6.54125 -7.49375,0.0237 -0.0263,-7.51875 6.54,-0.02 z m -2.46,-5.1175 -27.22125,0 c -4.7275,0 -8.5725,3.84625 -8.5725,8.5775 l 0,9.0575 0,3.335 0,14.82875 c 0,4.72875 3.845,8.575 8.5725,8.575 l 27.22125,0 c 4.7275,0 8.57625,-3.84625 8.57625,-8.575 l 0,-14.82375 0,-3.34 0,-9.0575 c 0,-4.73125 -3.84875,-8.5775 -8.57625,-8.5775"
         style="fill:#f16425;fill-opacity:1;fill-rule:nonzero;stroke:none"
         id="path3072"
         inkscape:connector-curvature="0" />
      <path
         inkscape:export-ydpi="90"
         inkscape:export-xdpi="90"
         inkscape:export-filename="/var/www/html/tugruero/web/img/fresh/instagram.png"
         d="m 597.97062,228.87594 c -17.1175,0 -31,-13.88 -31,-31 0,-17.12125 13.8825,-30.99875 31,-30.99875 17.11999,0 31,13.8775 31,30.99875 0,17.12 -13.88001,31 -31,31 m 0,-65.41375 c -19.005,0 -34.41125,15.405 -34.41125,34.41375 0,19.00375 15.40625,34.40875 34.41125,34.40875 19.00375,0 34.41,-15.405 34.41,-34.40875 0,-19.00875 -15.40625,-34.41375 -34.41,-34.41375"
         style="fill:#f16425;fill-opacity:1;fill-rule:nonzero;stroke:none"
         id="path3076"
         inkscape:connector-curvature="0" />
    </g>
    <path
       inkscape:connector-curvature="0"
       id="path3072-7"
       style="fill:#f16425;fill-opacity:1;fill-rule:nonzero;stroke:none"
       d="m 481.85515,241.32026 c 0,1.36365 -1.1094,2.47157 -2.47235,2.47157 l -15.82141,0 c -1.36369,0 -2.4709,-1.10792 -2.4709,-2.47157 l 0,-9.21937 0,-1.3375 3.84909,0 c -0.0965,0.23539 -0.178,0.48022 -0.24847,0.72796 -0.17362,0.60954 -0.26953,1.25177 -0.26953,1.91798 0,3.88899 3.16254,7.05075 7.05161,7.05075 3.88832,0 7.05086,-3.16176 7.05086,-7.05075 0,-0.66621 -0.0958,-1.30844 -0.27026,-1.91798 -0.0712,-0.24774 -0.15399,-0.49257 -0.24919,-0.72796 l 3.85055,0 0,1.3375 0,9.21937 z m -14.06107,-10.55687 c 0.82459,-1.14425 2.16431,-1.89182 3.67911,-1.89182 1.51406,0 2.85376,0.74757 3.67982,1.89182 0.10031,0.13731 0.1889,0.28334 0.27243,0.433 0.37052,0.65531 0.58702,1.41015 0.58702,2.21294 0,2.50209 -2.03861,4.53776 -4.53927,4.53776 -2.50287,0 -4.53931,-2.03567 -4.53931,-4.53776 0,-0.80352 0.2165,-1.55836 0.5863,-2.21367 0.0836,-0.14893 0.17364,-0.29496 0.2739,-0.43227 m 13.01851,-7.27524 0.56959,-0.003 0,0.56885 0,3.80181 -4.3555,0.0138 -0.0155,-4.36994 3.80115,-0.0116 z m -1.42979,-2.97431 -15.82141,0 c -2.74771,0 -4.98249,2.23546 -4.98249,4.98528 l 0,5.26427 0,1.93832 0,8.61855 c 0,2.74837 2.23478,4.98383 4.98249,4.98383 l 15.82141,0 c 2.74771,0 4.98465,-2.23546 4.98465,-4.98383 l 0,-8.61564 0,-1.94123 0,-5.26427 c 0,-2.74982 -2.23694,-4.98528 -4.98465,-4.98528"
       inkscape:export-filename="/var/www/html/tugruero/web/img/fresh/instagram.png"
       inkscape:export-xdpi="90"
       inkscape:export-ydpi="90" />
    <path
       inkscape:connector-curvature="0"
       id="path3076-5"
       style="fill:#f16425;fill-opacity:1;fill-rule:nonzero;stroke:none"
       d="m 471.4731,251.41642 c -9.94894,0 -18.01768,-8.06713 -18.01768,-18.01737 0,-9.95096 8.06874,-18.01663 18.01768,-18.01663 9.95043,0 18.0177,8.06567 18.0177,18.01663 0,9.95024 -8.06727,18.01737 -18.0177,18.01737 m 0,-38.01882 c -11.04599,0 -20.00035,8.95347 -20.00035,20.00145 0,11.04508 8.95436,19.99855 20.00035,19.99855 11.04529,0 19.99965,-8.95347 19.99965,-19.99855 0,-11.04798 -8.95436,-20.00145 -19.99965,-20.00145"
       inkscape:export-filename="/var/www/html/tugruero/web/img/fresh/instagram.png"
       inkscape:export-xdpi="90"
       inkscape:export-ydpi="90" />
  </g>
</svg>
