<?xml version="1.0" encoding="UTF-8" standalone="no"?>
<!-- Created with Inkscape (http://www.inkscape.org/) -->

<svg
   xmlns:dc="http://purl.org/dc/elements/1.1/"
   xmlns:cc="http://creativecommons.org/ns#"
   xmlns:rdf="http://www.w3.org/1999/02/22-rdf-syntax-ns#"
   xmlns:svg="http://www.w3.org/2000/svg"
   xmlns="http://www.w3.org/2000/svg"
   xmlns:sodipodi="http://sodipodi.sourceforge.net/DTD/sodipodi-0.dtd"
   xmlns:inkscape="http://www.inkscape.org/namespaces/inkscape"
   width="2400"
   height="1800"
   viewBox="0 0 2400 1799.9999"
   id="svg8302"
   version="1.1"
   inkscape:version="0.91 r13725"
   sodipodi:docname="popup_plus.svg">
  <defs
     id="defs8304" />
  <sodipodi:namedview
     id="base"
     pagecolor="#ffffff"
     bordercolor="#666666"
     borderopacity="1.0"
     inkscape:pageopacity="0.0"
     inkscape:pageshadow="2"
     inkscape:zoom="0.175"
     inkscape:cx="1130.3515"
     inkscape:cy="1850.4477"
     inkscape:document-units="px"
     inkscape:current-layer="layer1"
     showgrid="false"
     units="px"
     inkscape:window-width="959"
     inkscape:window-height="744"
     inkscape:window-x="65"
     inkscape:window-y="24"
     inkscape:window-maximized="1" />
  <metadata
     id="metadata8307">
    <rdf:RDF>
      <cc:Work
         rdf:about="">
        <dc:format>image/svg+xml</dc:format>
        <dc:type
           rdf:resource="http://purl.org/dc/dcmitype/StillImage" />
        <dc:title></dc:title>
      </cc:Work>
    </rdf:RDF>
  </metadata>
  <g
     inkscape:label="Capa 1"
     inkscape:groupmode="layer"
     id="layer1"
     transform="translate(0,747.63772)">
    <path
       d="m 4.4715471,1053.6484 2388.1995529,0 0,-1802.70213 -2388.1995529,0 0,1802.70213 z"
       style="fill:#e9e9e9;fill-opacity:1;fill-rule:nonzero;stroke:none"
       id="path1418"
       inkscape:connector-curvature="0"
       inkscape:export-xdpi="90"
       inkscape:export-ydpi="90" />
    <path
       d="m 2119.1777,810.97839 0,-152.71649 99.1403,0 64.303,152.71649 -163.4433,0 z m 121.0538,161.56185 c -0.3922,7.2512 -2.7442,14.0289 -6.5699,19.68006 -7.0296,10.5356 -19.0359,17.4417 -32.6167,17.4417 -20.9781,0 -38.1129,-16.39171 -39.2051,-37.12176 -0.042,-0.71179 -0.079,-1.4177 -0.079,-2.08634 0,-21.7144 17.6114,-39.26789 39.2836,-39.26789 6.1894,0 12.0122,1.40107 17.2604,3.95895 13.0278,6.4071 21.987,19.75159 21.987,35.30894 0,0.66864 -0.012,1.37455 -0.061,2.08634 m -344.7587,-121.97827 0,-186.31656 105.4259,186.31656 -105.4259,0 z m -9.3512,159.10003 c -21.6606,0 -39.2827,-17.56132 -39.2827,-39.2081 0,-21.7144 17.6221,-39.26789 39.2827,-39.26789 21.6958,0 39.2463,17.55349 39.2463,39.26789 0,21.64678 -17.5505,39.2081 -39.2463,39.2081 m 364.4809,-390.20817 c -2.2619,-5.12761 -7.3414,-8.37182 -12.9298,-8.37182 l -40.218,0 c -0.6147,-22.24089 -18.7996,-40.1238 -41.1473,-40.1238 -22.3233,0 -40.5503,17.88291 -41.1239,40.1238 l -54.2575,0 c -7.8248,0 -14.1847,6.31 -14.1847,14.15338 l 0,39.29631 0.03,28.38519 0,155.89797 C 2013.377,789.9944 1891.2615,575.08579 1890.8928,574.30341 c -10.8415,-20.68593 -28.241,-37.54038 -52.6409,-37.54038 -30.8431,0 -55.9772,25.15863 -55.9772,56.04194 0,18.86038 9.4787,35.56874 23.8674,45.66121 l -11.5719,30.38918 c -1.4236,3.7658 -1.3392,7.98946 0.35,11.6935 1.653,3.71874 4.7178,6.58354 8.5189,8.05417 10.0935,3.83149 15.2043,15.15831 11.3974,25.24392 -1.901,4.9178 -5.5207,8.76596 -10.3356,10.93857 -4.7649,2.14713 -10.1356,2.29321 -14.9681,0.39708 -5.2844,-1.95202 -9.4601,-6.17078 -11.3974,-11.4386 -2.9618,-7.95122 -11.7534,-11.95723 -19.6869,-9.02772 -7.9581,2.95303 -11.9749,11.77879 -9.0071,19.68296 5.0433,13.55728 15.6985,24.28996 29.2195,29.41856 5.7864,2.1981 11.818,3.29912 17.8407,3.29912 6.9924,0 13.9858,-1.4824 20.5369,-4.39622 12.2612,-5.53938 21.5889,-15.44558 26.3832,-28.01263 7.9355,-20.89575 0.9235,-43.8141 -15.6436,-57.07039 l 7.2875,-19.1859 c 1.0746,0.0599 2.0951,0.3608 3.204,0.3608 5.756,0 11.1808,-1.13336 16.4289,-2.78538 l 0,204.53477 -43.5729,0 -28.3558,0 -31.6029,0 c -7.8973,0 -14.2269,6.30509 -14.2269,14.18671 l 0,93.63622 c 0,7.79632 6.3296,14.15534 14.2269,14.15534 l 56.4968,0 c 1.1275,42.36596 35.8081,76.38076 78.4573,76.38076 42.6554,0 77.3486,-34.0148 78.4692,-76.38076 l 157.9549,0 c 1.1569,42.36596 35.8187,76.38076 78.4995,76.38076 42.6562,0 77.3288,-34.0148 78.4396,-76.38076 l 43.2651,0 c 7.8317,0 14.1907,-6.35902 14.1907,-14.15534 l 0,-142.74852 c 0,-2.03928 -0.405,-3.96973 -1.2364,-5.84038 l -85.1014,-190.34217 z"
       style="opacity:0.10000598;fill:#26282b;fill-opacity:1;fill-rule:nonzero;stroke:none"
       id="path1442"
       inkscape:connector-curvature="0"
       inkscape:export-xdpi="90"
       inkscape:export-ydpi="90" />
  </g>
</svg>
