<?xml version="1.0" encoding="UTF-8" standalone="no"?>
<!-- Created with Inkscape (http://www.inkscape.org/) -->

<svg
   xmlns:dc="http://purl.org/dc/elements/1.1/"
   xmlns:cc="http://creativecommons.org/ns#"
   xmlns:rdf="http://www.w3.org/1999/02/22-rdf-syntax-ns#"
   xmlns:svg="http://www.w3.org/2000/svg"
   xmlns="http://www.w3.org/2000/svg"
   xmlns:sodipodi="http://sodipodi.sourceforge.net/DTD/sodipodi-0.dtd"
   xmlns:inkscape="http://www.inkscape.org/namespaces/inkscape"
   width="210mm"
   height="297mm"
   id="svg5996"
   version="1.1"
   inkscape:version="0.48.4 r9939"
   sodipodi:docname="Nuevo documento 27">
  <defs
     id="defs5998" />
  <sodipodi:namedview
     id="base"
     pagecolor="#ffffff"
     bordercolor="#666666"
     borderopacity="1.0"
     inkscape:pageopacity="0.0"
     inkscape:pageshadow="2"
     inkscape:zoom="0.35"
     inkscape:cx="350"
     inkscape:cy="520"
     inkscape:document-units="px"
     inkscape:current-layer="layer1"
     showgrid="false"
     inkscape:window-width="607"
     inkscape:window-height="438"
     inkscape:window-x="0"
     inkscape:window-y="56"
     inkscape:window-maximized="0" />
  <metadata
     id="metadata6001">
    <rdf:RDF>
      <cc:Work
         rdf:about="">
        <dc:format>image/svg+xml</dc:format>
        <dc:type
           rdf:resource="http://purl.org/dc/dcmitype/StillImage" />
        <dc:title></dc:title>
      </cc:Work>
    </rdf:RDF>
  </metadata>
  <g
     inkscape:label="Capa 1"
     inkscape:groupmode="layer"
     id="layer1">
    <path
       sodipodi:type="arc"
       style="fill:#3d444e;fill-opacity:1"
       id="path3805"
       sodipodi:cx="267.1915"
       sodipodi:cy="256.04965"
       sodipodi:rx="151.02127"
       sodipodi:ry="146.50354"
       d="M 349.87702,378.64377 A 151.02127,146.50354 0 1 1 371.03815,362.4203"
       sodipodi:start="0.99141164"
       sodipodi:end="7.0957628"
       sodipodi:open="true"
       transform="matrix(2.1195805,0,0,1.6386935,-216.31952,112.77528)"
       inkscape:export-filename="/var/www/html/tugruero/tugruero_disenio/img/g5247.png"
       inkscape:export-xdpi="90"
       inkscape:export-ydpi="90" />
    <flowRoot
       xml:space="preserve"
       id="flowRoot3873"
       style="font-size:40px;font-style:italic;font-weight:normal;line-height:125%;letter-spacing:0px;word-spacing:0px;fill:#000000;fill-opacity:1;stroke:none;font-family:Sans;-inkscape-font-specification:Sans Italic"
       transform="translate(66.035128,471.86575)"
       inkscape:export-filename="/var/www/html/tugruero/tugruero_disenio/img/g5247.png"
       inkscape:export-xdpi="90"
       inkscape:export-ydpi="90"><flowRegion
         id="flowRegion3875"><rect
           id="rect3877"
           width="393.68796"
           height="122.62411"
           x="139.40425"
           y="149.56029" /></flowRegion><flowPara
         id="flowPara3879"><flowSpan
           id="flowSpan3977"
           style="fill:#2b2200"><flowSpan
   style="fill:#f27730;fill-opacity:1"
   id="flowSpan3979">CONDU</flowSpan>CTORES</flowSpan></flowPara></flowRoot>    <g
       id="g5223"
       transform="matrix(1.25,0,0,-1.25,377.34873,510.81939)"
       inkscape:export-filename="/var/www/html/tugruero/tugruero_disenio/img/g5247.png"
       inkscape:export-xdpi="90"
       inkscape:export-ydpi="90">
      <path
         inkscape:connector-curvature="0"
         d="m 0,0 0,34.747 22.557,0 L 37.189,0 0,0 z m 27.543,-36.762 c -0.088,-1.65 -0.625,-3.19 -1.494,-4.476 -1.602,-2.399 -4.33,-3.97 -7.422,-3.97 -4.774,0 -8.672,3.73 -8.92,8.446 -0.009,0.162 -0.019,0.324 -0.019,0.476 0,4.94 4.007,8.934 8.939,8.934 1.408,0 2.732,-0.318 3.927,-0.9 2.966,-1.459 5.002,-4.496 5.002,-8.034 0,-0.152 -0.001,-0.314 -0.013,-0.476 m -78.445,27.755 0,42.393 23.988,-42.393 -23.988,0 z m -2.127,-36.201 c -4.93,0 -8.938,3.997 -8.938,8.922 0,4.94 4.008,8.934 8.938,8.934 4.937,0 8.929,-3.994 8.929,-8.934 0,-4.925 -3.992,-8.922 -8.929,-8.922 m 82.931,88.786 c -0.513,1.168 -1.67,1.905 -2.942,1.905 l -9.151,0 c -0.138,5.061 -4.277,9.129 -9.362,9.129 -5.079,0 -9.226,-4.068 -9.355,-9.129 l -12.348,0 c -1.779,0 -3.224,-1.435 -3.224,-3.221 l 0,-8.94 0.004,-6.461 0,-35.47 c -7.598,13.382 -35.383,62.282 -35.467,62.461 -2.468,4.706 -6.426,8.541 -11.978,8.541 -7.018,0 -12.738,-5.724 -12.738,-12.752 0,-4.291 2.157,-8.092 5.431,-10.389 l -2.633,-6.914 c -0.325,-0.858 -0.304,-1.818 0.08,-2.66 0.378,-0.848 1.075,-1.498 1.937,-1.834 2.297,-0.871 3.461,-3.448 2.594,-5.743 -0.43,-1.119 -1.256,-1.996 -2.35,-2.49 -1.086,-0.489 -2.306,-0.521 -3.407,-0.09 -1.202,0.445 -2.151,1.405 -2.594,2.602 -0.672,1.811 -2.672,2.723 -4.477,2.055 -1.811,-0.672 -2.725,-2.682 -2.049,-4.478 1.147,-3.086 3.568,-5.526 6.647,-6.694 1.316,-0.5 2.689,-0.751 4.06,-0.751 1.592,0 3.181,0.338 4.672,1.001 2.789,1.26 4.911,3.514 6.004,6.373 1.806,4.754 0.209,9.971 -3.561,12.984 l 1.66,4.367 c 0.245,-0.014 0.476,-0.084 0.729,-0.084 1.309,0 2.543,0.26 3.736,0.637 l 0,-46.54 -9.913,0 -6.452,0 -7.191,0 c -1.797,0 -3.237,-1.435 -3.237,-3.227 l 0,-21.305 c 0,-1.775 1.44,-3.223 3.237,-3.223 l 12.854,0 c 0.257,-9.638 8.148,-17.378 17.853,-17.378 9.707,0 17.597,7.74 17.855,17.378 l 35.941,0 C 1.03,-46.4 8.914,-54.14 18.627,-54.14 c 9.704,0 17.596,7.74 17.85,17.378 l 9.843,0 c 1.782,0 3.227,1.448 3.227,3.223 l 0,32.478 c 0,0.465 -0.092,0.904 -0.281,1.331 L 29.902,43.578 z"
         style="fill:#f27730;fill-opacity:1;fill-rule:nonzero;stroke:none"
         id="path5225" />
    </g>
    <g
       id="g5227"
       transform="matrix(1.25,0,0,-1.25,311.05973,550.93649)"
       inkscape:export-filename="/var/www/html/tugruero/tugruero_disenio/img/g5247.png"
       inkscape:export-xdpi="90"
       inkscape:export-ydpi="90">
      <path
         inkscape:connector-curvature="0"
         d="m 0,0 c -2.312,0 -4.186,-1.874 -4.186,-4.185 0,-2.31 1.874,-4.188 4.186,-4.188 2.313,0 4.186,1.878 4.186,4.188 C 4.186,-1.874 2.313,0 0,0"
         style="fill:#f27730;fill-opacity:1;fill-rule:nonzero;stroke:none"
         id="path5229" />
    </g>
    <g
       id="g5231"
       transform="matrix(1.25,0,0,-1.25,400.62993,550.93649)"
       inkscape:export-filename="/var/www/html/tugruero/tugruero_disenio/img/g5247.png"
       inkscape:export-xdpi="90"
       inkscape:export-ydpi="90">
      <path
         inkscape:connector-curvature="0"
         d="m 0,0 c -2.313,0 -4.187,-1.874 -4.187,-4.185 0,-2.31 1.874,-4.188 4.187,-4.188 2.312,0 4.185,1.878 4.185,4.188 C 4.185,-1.874 2.312,0 0,0"
         style="fill:#f27730;fill-opacity:1;fill-rule:nonzero;stroke:none"
         id="path5233" />
    </g>
    <g
       id="g5235"
       transform="matrix(1.25,0,0,-1.25,375.26133,431.78249)"
       inkscape:export-filename="/var/www/html/tugruero/tugruero_disenio/img/g5247.png"
       inkscape:export-xdpi="90"
       inkscape:export-ydpi="90">
      <path
         inkscape:connector-curvature="0"
         d="m 0,0 c -1.121,-1.121 -1.12,-2.938 0,-4.061 1.122,-1.126 2.943,-1.126 4.063,-0.001 3.074,3.074 8.073,3.074 11.146,0.001 1.12,-1.126 2.938,-1.126 4.062,-0.001 1.123,1.12 1.12,2.938 0,4.062 C 13.959,5.31 5.313,5.313 0,0"
         style="fill:#f27730;fill-opacity:1;fill-rule:nonzero;stroke:none"
         id="path5237" />
    </g>
    <g
       id="g5239"
       transform="matrix(1.25,0,0,-1.25,407.33893,426.10859)"
       inkscape:export-filename="/var/www/html/tugruero/tugruero_disenio/img/g5247.png"
       inkscape:export-xdpi="90"
       inkscape:export-ydpi="90">
      <path
         inkscape:connector-curvature="0"
         d="m 0,0 c 1.12,1.122 1.12,2.939 0.002,4.063 -8.838,8.838 -23.219,8.839 -32.055,0.001 -1.121,-1.12 -1.119,-2.942 0,-4.064 1.123,-1.118 2.94,-1.118 4.063,0 6.595,6.599 17.332,6.599 23.927,0 1.124,-1.118 2.942,-1.119 4.063,0"
         style="fill:#f27730;fill-opacity:1;fill-rule:nonzero;stroke:none"
         id="path5241" />
    </g>
    <g
       id="g5243"
       transform="matrix(1.25,0,0,-1.25,363.09823,415.84749)"
       inkscape:export-filename="/var/www/html/tugruero/tugruero_disenio/img/g5247.png"
       inkscape:export-xdpi="90"
       inkscape:export-ydpi="90">
      <path
         inkscape:connector-curvature="0"
         d="m 0,0 c 10.896,10.897 28.623,10.895 39.52,0 1.121,-1.124 2.937,-1.124 4.059,0 1.124,1.119 1.124,2.941 0.002,4.059 C 30.443,17.194 9.072,17.194 -4.061,4.063 -5.182,2.944 -5.182,1.124 -4.061,0 -2.938,-1.123 -1.121,-1.123 0,0"
         style="fill:#f27730;fill-opacity:1;fill-rule:nonzero;stroke:none"
         id="path5245" />
    </g>
    <g
       id="g5247"
       transform="matrix(1.25,0,0,-1.25,460.85453,558.22299)"
       inkscape:export-xdpi="90"
       inkscape:export-ydpi="90"
       inkscape:export-filename="/var/www/html/tugruero/tugruero_disenio/img/g5247.png">
      <path
         inkscape:connector-curvature="0"
         d="m 0,0 c 0,-19.272 -15.678,-34.951 -34.95,-34.951 l -102.173,0 c -19.273,0 -34.951,15.679 -34.951,34.951 l 0,102.174 c 0,19.271 15.678,34.95 34.951,34.95 l 102.173,0 C -15.678,137.124 0,121.445 0,102.174 L 0,0 z m -34.95,145.124 -102.173,0 c -23.722,0 -42.951,-19.229 -42.951,-42.95 l 0,-102.174 c 0,-23.722 19.229,-42.951 42.951,-42.951 l 102.173,0 C -11.229,-42.951 8,-23.722 8,0 l 0,102.174 c 0,23.721 -19.229,42.95 -42.95,42.95"
         style="fill:#f27730;fill-opacity:1;fill-rule:nonzero;stroke:none"
         id="path5249" />
    </g>
  </g>
</svg>
