<?xml version="1.0" encoding="UTF-8" standalone="no"?>
<!-- Created with Inkscape (http://www.inkscape.org/) -->

<svg
   xmlns:dc="http://purl.org/dc/elements/1.1/"
   xmlns:cc="http://creativecommons.org/ns#"
   xmlns:rdf="http://www.w3.org/1999/02/22-rdf-syntax-ns#"
   xmlns:svg="http://www.w3.org/2000/svg"
   xmlns="http://www.w3.org/2000/svg"
   xmlns:sodipodi="http://sodipodi.sourceforge.net/DTD/sodipodi-0.dtd"
   xmlns:inkscape="http://www.inkscape.org/namespaces/inkscape"
   width="210mm"
   height="297mm"
   id="svg4029"
   version="1.1"
   inkscape:version="0.48.4 r9939"
   sodipodi:docname="Nuevo documento 4">
  <defs
     id="defs4031">
    <clipPath
       clipPathUnits="userSpaceOnUse"
       id="clipPath250">
      <path
         inkscape:connector-curvature="0"
         d="m 146.091,719.937 104.796,0 0,-104.797 -104.796,0 0,104.797 z"
         id="path252" />
    </clipPath>
    <clipPath
       clipPathUnits="userSpaceOnUse"
       id="clipPath198">
      <path
         inkscape:connector-curvature="0"
         d="m 262.905,687.149 275.68,0 0,-40.193 -275.68,0 0,40.193 z"
         id="path200" />
    </clipPath>
  </defs>
  <sodipodi:namedview
     id="base"
     pagecolor="#ffffff"
     bordercolor="#666666"
     borderopacity="1.0"
     inkscape:pageopacity="0.0"
     inkscape:pageshadow="2"
     inkscape:zoom="0.35"
     inkscape:cx="350"
     inkscape:cy="520"
     inkscape:document-units="px"
     inkscape:current-layer="layer1"
     showgrid="false"
     inkscape:window-width="607"
     inkscape:window-height="438"
     inkscape:window-x="0"
     inkscape:window-y="56"
     inkscape:window-maximized="0" />
  <metadata
     id="metadata4034">
    <rdf:RDF>
      <cc:Work
         rdf:about="">
        <dc:format>image/svg+xml</dc:format>
        <dc:type
           rdf:resource="http://purl.org/dc/dcmitype/StillImage" />
        <dc:title></dc:title>
      </cc:Work>
    </rdf:RDF>
  </metadata>
  <g
     inkscape:label="Capa 1"
     inkscape:groupmode="layer"
     id="layer1">
    <g
       transform="matrix(1.25,0,0,-1.25,-76.26675,1369.1981)"
       id="g194"
       inkscape:export-filename="/var/www/html/tugruero_disenio/img/logo1.png"
       inkscape:export-xdpi="90"
       inkscape:export-ydpi="90">
      <g
         id="g196" />
      <g
         id="g202">
        <g
           style="opacity:0.14999402"
           clip-path="url(#clipPath198)"
           id="g204">
          <g
             transform="translate(262.9048,681.1846)"
             id="g206">
            <path
               inkscape:connector-curvature="0"
               d="m 0,0 11.394,0 0,-32.295 5.427,0 0,32.295 11.337,0 0,5.481 L 0,5.481 0,0 z"
               style="fill:#000000;fill-opacity:1;fill-rule:nonzero;stroke:none"
               id="path208" />
          </g>
          <g
             transform="translate(317.0161,660.3359)"
             id="g210">
            <path
               inkscape:connector-curvature="0"
               d="m 0,0 c 0,-4.138 -4.461,-6.231 -8.382,-6.231 -3.977,0 -8.436,2.039 -8.436,6.176 l 0,26.331 -5.483,0 0,-26.276 c 0,-7.684 7.308,-11.659 13.919,-11.659 6.447,0 13.863,3.975 13.863,11.604 l 0,26.331 L 0,26.276 0,0 z"
               style="fill:#000000;fill-opacity:1;fill-rule:nonzero;stroke:none"
               id="path212" />
          </g>
          <g
             transform="translate(339.1187,685.9141)"
             id="g214">
            <path
               inkscape:connector-curvature="0"
               d="m 0,0 -14.939,-38.958 3.6,0 L 3.707,0 0,0 z"
               style="fill:#000000;fill-opacity:1;fill-rule:nonzero;stroke:none"
               id="path216" />
          </g>
          <g
             transform="translate(359.1694,661.626)"
             id="g218">
            <path
               inkscape:connector-curvature="0"
               d="M 0,0 13.918,0 C 11.662,-5.482 6.717,-7.633 2.096,-7.633 c -7.363,0 -13.058,5.86 -13.058,13.813 0,7.898 5.695,13.65 13.058,13.65 4.782,0 10.584,-2.207 12.091,-8.277 l 5.803,0 C 18.001,21.547 9.297,25.254 2.096,25.254 -8.275,25.254 -16.39,17.303 -16.39,6.18 c 0,-11.071 7.952,-19.025 18.486,-19.025 6.824,0 14.562,4.623 17.14,11.824 l 0,-0.053 c 0.485,1.235 0.754,3.328 1.022,6.5 L 0,5.426 0,0 z"
               style="fill:#000000;fill-opacity:1;fill-rule:nonzero;stroke:none"
               id="path220" />
          </g>
          <g
             transform="translate(409.5161,674.6826)"
             id="g222">
            <path
               inkscape:connector-curvature="0"
               d="m 0,0 c 0,5.965 -4.083,11.983 -12.251,11.983 l -13.702,0 0,-37.616 5.373,0 0,32.135 8.329,0 c 4.568,0 6.826,-3.276 6.826,-6.502 0,-3.279 -2.258,-6.555 -6.826,-6.555 l -6.342,0 0,-2.58 13.704,-16.498 7.04,0 L -9.724,-11.5 C -3.275,-10.373 0,-5.32 0,0"
               style="fill:#000000;fill-opacity:1;fill-rule:nonzero;stroke:none"
               id="path224" />
          </g>
          <g
             transform="translate(435.3101,660.3359)"
             id="g226">
            <path
               inkscape:connector-curvature="0"
               d="m 0,0 c 0,-4.138 -4.459,-6.231 -8.383,-6.231 -3.976,0 -8.436,2.039 -8.436,6.176 l 0,26.331 -5.482,0 0,-26.276 c 0,-7.684 7.309,-11.659 13.918,-11.659 6.448,0 13.863,3.975 13.863,11.604 l 0,26.331 -5.48,0 L 0,0 z"
               style="fill:#000000;fill-opacity:1;fill-rule:nonzero;stroke:none"
               id="path228" />
          </g>
          <g
             transform="translate(450.8911,665.1172)"
             id="g230">
            <path
               inkscape:connector-curvature="0"
               d="m 0,0 17.035,0 0,5.482 -17.035,0 0,10.585 17.411,0 0,5.428 -22.892,0 0,-37.562 22.945,0 0,5.428 L 0,-10.639 0,0 z"
               style="fill:#000000;fill-opacity:1;fill-rule:nonzero;stroke:none"
               id="path232" />
          </g>
          <g
             transform="translate(497.855,674.6826)"
             id="g234">
            <path
               inkscape:connector-curvature="0"
               d="m 0,0 c 0,5.965 -4.083,11.983 -12.251,11.983 l -13.704,0 0,-37.616 5.374,0 0,32.135 8.33,0 c 4.565,0 6.824,-3.276 6.824,-6.502 0,-3.279 -2.259,-6.555 -6.824,-6.555 l -6.342,0 0,-2.58 13.702,-16.498 7.039,0 L -9.727,-11.5 C -3.276,-10.373 0,-5.32 0,0"
               style="fill:#000000;fill-opacity:1;fill-rule:nonzero;stroke:none"
               id="path236" />
          </g>
          <g
             transform="translate(529.1284,658.1338)"
             id="g238">
            <path
               inkscape:connector-curvature="0"
               d="m 0,0 c -2.526,-2.527 -6.019,-4.086 -9.726,-4.086 -3.709,0 -7.147,1.559 -9.62,4.086 -2.47,2.471 -4.03,5.909 -4.03,9.727 0,3.814 1.56,7.251 4.03,9.724 2.473,2.525 5.911,4.086 9.62,4.086 3.707,0 7.2,-1.561 9.726,-4.086 C 2.418,16.978 3.977,13.596 3.977,9.727 3.977,5.855 2.418,2.471 0,0 m 3.869,23.322 c -3.495,3.491 -8.275,5.694 -13.595,5.694 -5.266,0 -10.104,-2.203 -13.542,-5.694 -3.385,-3.494 -5.589,-8.277 -5.589,-13.595 0,-5.323 2.204,-10.104 5.589,-13.596 3.438,-3.547 8.276,-5.697 13.542,-5.697 5.32,0 10.1,2.15 13.595,5.697 3.385,3.492 5.588,8.273 5.588,13.596 0,5.318 -2.203,10.101 -5.588,13.595"
               style="fill:#000000;fill-opacity:1;fill-rule:nonzero;stroke:none"
               id="path240" />
          </g>
          <g
             transform="translate(525.3511,667.6465)"
             id="g242">
            <path
               inkscape:connector-curvature="0"
               d="m 0,0 c 0,-3.271 -2.651,-5.923 -5.922,-5.923 -3.271,0 -5.922,2.652 -5.922,5.923 0,3.268 2.651,5.919 5.922,5.919 C -2.651,5.919 0,3.268 0,0"
               style="fill:#000000;fill-opacity:1;fill-rule:nonzero;stroke:none"
               id="path244" />
          </g>
        </g>
      </g>
    </g>
    <g
       transform="matrix(1.25,0,0,-1.25,-76.26675,1369.1981)"
       id="g246"
       inkscape:export-filename="/var/www/html/tugruero_disenio/img/logo1.png"
       inkscape:export-xdpi="90"
       inkscape:export-ydpi="90">
      <g
         id="g248" />
      <g
         id="g254">
        <g
           style="opacity:0.14999402"
           clip-path="url(#clipPath250)"
           id="g256">
          <g
             transform="translate(250.8872,667.54)"
             id="g258">
            <path
               inkscape:connector-curvature="0"
               d="m 0,0 c 0,-28.936 -23.462,-52.4 -52.399,-52.4 -28.94,0 -52.397,23.464 -52.397,52.4 0,28.939 23.457,52.396 52.397,52.396 C -23.462,52.396 0,28.939 0,0"
               style="fill:#000000;fill-opacity:1;fill-rule:nonzero;stroke:none"
               id="path260" />
          </g>
        </g>
      </g>
    </g>
    <g
       id="g262"
       transform="matrix(1.25,0,0,-1.25,234.0305,529.95124)"
       inkscape:export-filename="/var/www/html/tugruero_disenio/img/logo1.png"
       inkscape:export-xdpi="90"
       inkscape:export-ydpi="90">
      <path
         inkscape:connector-curvature="0"
         d="m 0,0 c 0,-28.936 -23.46,-52.397 -52.398,-52.397 -28.938,0 -52.398,23.461 -52.398,52.397 0,28.939 23.46,52.4 52.398,52.4 C -23.46,52.4 0,28.939 0,0"
         style="fill:#404040;fill-opacity:1;fill-rule:nonzero;stroke:none"
         id="path264" />
    </g>
    <g
       id="g266"
       transform="matrix(1.25,0,0,-1.25,227.54,529.95124)"
       inkscape:export-filename="/var/www/html/tugruero_disenio/img/logo1.png"
       inkscape:export-xdpi="90"
       inkscape:export-ydpi="90">
      <path
         inkscape:connector-curvature="0"
         d="m 0,0 c 0,-26.07 -21.136,-47.207 -47.206,-47.207 -26.068,0 -47.204,21.137 -47.204,47.207 0,26.068 21.136,47.203 47.204,47.203 C -21.136,47.203 0,26.068 0,0"
         style="fill:#f27730;fill-opacity:1;fill-rule:nonzero;stroke:none"
         id="path268" />
    </g>
    <g
       id="g270"
       transform="matrix(1.25,0,0,-1.25,147.61937,540.38587)"
       inkscape:export-filename="/var/www/html/tugruero_disenio/img/logo1.png"
       inkscape:export-xdpi="90"
       inkscape:export-ydpi="90">
      <path
         inkscape:connector-curvature="0"
         d="M 0,0 11.948,0 0,21.115 0,0 z"
         style="fill:#cc5a27;fill-opacity:1;fill-rule:nonzero;stroke:none"
         id="path272" />
    </g>
    <g
       id="g274"
       transform="matrix(1.25,0,0,-1.25,208.15275,557.66862)"
       inkscape:export-filename="/var/www/html/tugruero_disenio/img/logo1.png"
       inkscape:export-xdpi="90"
       inkscape:export-ydpi="90">
      <path
         inkscape:connector-curvature="0"
         d="m 0,0 -4.903,0 c -0.126,-4.801 -4.058,-8.658 -8.89,-8.658 -4.839,0 -8.767,3.857 -8.897,8.658 l -17.903,0 c -0.129,-4.801 -4.058,-8.658 -8.894,-8.658 -4.834,0 -8.766,3.857 -8.893,8.658 l -6.402,0 c -0.897,0 -1.612,0.721 -1.612,1.605 l 0,10.612 c 0,0.893 0.715,1.609 1.612,1.609 l 3.582,0 3.213,0 4.938,0 0,23.18 c -0.593,-0.186 -1.208,-0.316 -1.86,-0.316 -0.127,0 -0.243,0.035 -0.363,0.041 L -56.1,34.557 c 1.879,-1.502 2.673,-4.1 1.773,-6.468 -0.543,-1.423 -1.6,-2.548 -2.99,-3.173 -0.743,-0.333 -1.535,-0.5 -2.328,-0.5 -0.681,0 -1.366,0.125 -2.022,0.375 -1.532,0.58 -2.739,1.795 -3.311,3.333 -0.335,0.897 0.12,1.896 1.021,2.229 0.899,0.335 1.895,-0.121 2.231,-1.021 0.22,-0.598 0.694,-1.077 1.291,-1.298 0.547,-0.214 1.157,-0.197 1.698,0.048 0.545,0.244 0.957,0.68 1.172,1.238 0.43,1.143 -0.15,2.427 -1.293,2.862 -0.431,0.166 -0.778,0.489 -0.965,0.913 -0.192,0.419 -0.202,0.897 -0.041,1.325 l 1.312,3.443 c -1.632,1.145 -2.705,3.039 -2.705,5.176 0,1.091 0.278,2.11 0.758,3.008 L -78.542,27.996 c -0.236,-1.904 -0.358,-3.848 -0.358,-5.822 0,-26.07 21.135,-47.207 47.204,-47.207 2.573,0 5.096,0.211 7.556,0.606 L 0.315,0.029 C 0.216,0.011 0.105,0 0,0"
         style="fill:#cc5a27;fill-opacity:1;fill-rule:nonzero;stroke:none"
         id="path276" />
    </g>
    <g
       id="g278"
       transform="matrix(1.25,0,0,-1.25,179.3125,513.14224)"
       inkscape:export-filename="/var/www/html/tugruero_disenio/img/logo1.png"
       inkscape:export-xdpi="90"
       inkscape:export-ydpi="90">
      <path
         inkscape:connector-curvature="0"
         d="m 0,0 0,-17.308 18.524,0 L 11.235,0 0,0 z"
         style="fill:#cc5a27;fill-opacity:1;fill-rule:nonzero;stroke:none"
         id="path280" />
    </g>
    <g
       id="g282"
       transform="matrix(1.25,0,0,-1.25,146.29363,551.80924)"
       inkscape:export-filename="/var/www/html/tugruero_disenio/img/logo1.png"
       inkscape:export-xdpi="90"
       inkscape:export-ydpi="90">
      <path
         inkscape:connector-curvature="0"
         d="m 0,0 c -2.455,0 -4.451,-1.99 -4.451,-4.451 0,-2.453 1.996,-4.444 4.451,-4.444 2.459,0 4.449,1.991 4.449,4.444 C 4.449,-1.99 2.459,0 0,0"
         style="fill:#cc5a27;fill-opacity:1;fill-rule:nonzero;stroke:none"
         id="path284" />
    </g>
    <g
       id="g286"
       transform="matrix(1.25,0,0,-1.25,193.3555,552.37074)"
       inkscape:export-filename="/var/www/html/tugruero_disenio/img/logo1.png"
       inkscape:export-xdpi="90"
       inkscape:export-ydpi="90">
      <path
         inkscape:connector-curvature="0"
         d="m 0,0 c -0.595,0.29 -1.254,0.449 -1.955,0.449 -2.456,0 -4.454,-1.99 -4.454,-4.451 0,-0.075 0.006,-0.156 0.01,-0.236 0.123,-2.35 2.065,-4.207 4.444,-4.207 1.538,0 2.898,0.783 3.696,1.978 0.433,0.639 0.7,1.406 0.744,2.229 0.006,0.08 0.006,0.161 0.006,0.236 C 2.491,-2.239 1.477,-0.728 0,0"
         style="fill:#cc5a27;fill-opacity:1;fill-rule:nonzero;stroke:none"
         id="path288" />
    </g>
    <g
       id="g290"
       transform="matrix(1.25,0,0,-1.25,179.3125,534.77674)"
       inkscape:export-filename="/var/www/html/tugruero_disenio/img/logo1.png"
       inkscape:export-xdpi="90"
       inkscape:export-ydpi="90">
      <path
         inkscape:connector-curvature="0"
         d="m 0,0 0,17.308 11.235,0 L 18.524,0 0,0 z m 13.72,-18.313 c -0.044,-0.823 -0.312,-1.59 -0.744,-2.229 -0.798,-1.195 -2.159,-1.979 -3.697,-1.979 -2.379,0 -4.321,1.858 -4.444,4.208 -0.004,0.08 -0.01,0.161 -0.01,0.236 0,2.461 1.998,4.451 4.454,4.451 0.701,0 1.361,-0.159 1.955,-0.449 1.477,-0.728 2.492,-2.239 2.492,-4.002 0,-0.075 0,-0.156 -0.006,-0.236 m -39.074,13.826 0,21.115 11.948,-21.115 -11.948,0 z m -1.061,-18.034 c -2.455,0 -4.451,1.991 -4.451,4.444 0,2.461 1.996,4.451 4.451,4.451 2.459,0 4.449,-1.99 4.449,-4.451 0,-2.453 -1.99,-4.444 -4.449,-4.444 M 24.54,0.132 14.896,21.706 c -0.256,0.58 -0.833,0.947 -1.466,0.947 l -4.56,0 C 8.802,25.175 6.741,27.2 4.208,27.2 c -2.531,0 -4.596,-2.025 -4.66,-4.547 l -6.151,0 c -0.886,0 -1.607,-0.714 -1.607,-1.603 l 0,-4.455 0.003,-3.217 0,-17.668 c -3.784,6.668 -17.624,31.023 -17.667,31.112 -1.229,2.344 -3.2,4.253 -5.966,4.253 -3.496,0 -6.345,-2.849 -6.345,-6.349 0,-2.137 1.074,-4.032 2.706,-5.176 l -1.313,-3.444 c -0.161,-0.427 -0.15,-0.906 0.041,-1.325 0.188,-0.424 0.534,-0.747 0.965,-0.913 1.143,-0.434 1.723,-1.719 1.293,-2.861 -0.215,-0.559 -0.627,-0.994 -1.172,-1.238 -0.541,-0.246 -1.15,-0.262 -1.697,-0.048 -0.598,0.22 -1.072,0.7 -1.291,1.298 -0.336,0.9 -1.332,1.355 -2.232,1.02 -0.901,-0.333 -1.356,-1.332 -1.02,-2.228 0.571,-1.539 1.778,-2.753 3.31,-3.333 0.657,-0.25 1.341,-0.375 2.023,-0.375 0.793,0 1.585,0.167 2.327,0.5 1.391,0.625 2.447,1.75 2.99,3.172 0.901,2.369 0.107,4.966 -1.772,6.468 l 0.827,2.175 c 0.12,-0.007 0.236,-0.041 0.363,-0.041 0.652,0 1.268,0.13 1.86,0.315 l 0,-23.179 -4.938,0 -3.213,0 -3.582,0 c -0.896,0 -1.611,-0.716 -1.611,-1.61 l 0,-10.611 c 0,-0.885 0.715,-1.605 1.611,-1.605 l 6.402,0 c 0.127,-4.801 4.059,-8.659 8.893,-8.659 4.836,0 8.766,3.858 8.894,8.659 l 17.903,0 c 0.131,-4.801 4.058,-8.659 8.897,-8.659 4.832,0 8.764,3.858 8.89,8.659 l 4.903,0 c 0.888,0 1.609,0.72 1.609,1.605 l 0,16.178 c 0,0.232 -0.046,0.449 -0.141,0.662"
         style="fill:#404040;fill-opacity:1;fill-rule:nonzero;stroke:none"
         id="path292" />
    </g>
    <g
       id="g294"
       transform="matrix(1.25,0,0,-1.25,148.89862,557.36825)"
       inkscape:export-filename="/var/www/html/tugruero_disenio/img/logo1.png"
       inkscape:export-xdpi="90"
       inkscape:export-ydpi="90">
      <path
         inkscape:connector-curvature="0"
         d="m 0,0 c 0,-1.15 -0.932,-2.086 -2.084,-2.086 -1.151,0 -2.086,0.936 -2.086,2.086 0,1.15 0.935,2.086 2.086,2.086 C -0.932,2.086 0,1.15 0,0"
         style="fill:#404040;fill-opacity:1;fill-rule:nonzero;stroke:none"
         id="path296" />
    </g>
    <g
       id="g298"
       transform="matrix(1.25,0,0,-1.25,193.51537,557.36825)"
       inkscape:export-filename="/var/www/html/tugruero_disenio/img/logo1.png"
       inkscape:export-xdpi="90"
       inkscape:export-ydpi="90">
      <path
         inkscape:connector-curvature="0"
         d="m 0,0 c 0,-1.15 -0.934,-2.086 -2.084,-2.086 -1.152,0 -2.086,0.936 -2.086,2.086 0,1.15 0.934,2.086 2.086,2.086 C -0.934,2.086 0,1.15 0,0"
         style="fill:#404040;fill-opacity:1;fill-rule:nonzero;stroke:none"
         id="path300" />
    </g>
    <g
       id="g302"
       transform="matrix(1.25,0,0,-1.25,177.175,497.60749)"
       inkscape:export-filename="/var/www/html/tugruero_disenio/img/logo1.png"
       inkscape:export-xdpi="90"
       inkscape:export-ydpi="90">
      <path
         inkscape:connector-curvature="0"
         d="m 0,0 c -0.561,-0.559 -0.56,-1.464 0,-2.021 0.559,-0.561 1.465,-0.561 2.023,-0.002 1.53,1.531 4.022,1.531 5.553,0.002 0.557,-0.561 1.463,-0.561 2.022,-0.002 0.56,0.558 0.557,1.464 0,2.023 C 6.953,2.646 2.645,2.646 0,0"
         style="fill:#cc5a27;fill-opacity:1;fill-rule:nonzero;stroke:none"
         id="path304" />
    </g>
    <g
       id="g306"
       transform="matrix(1.25,0,0,-1.25,173.19425,492.24987)"
       inkscape:export-filename="/var/www/html/tugruero_disenio/img/logo1.png"
       inkscape:export-xdpi="90"
       inkscape:export-ydpi="90">
      <path
         inkscape:connector-curvature="0"
         d="m 0,0 c -0.558,-0.56 -0.557,-1.466 0,-2.023 0.56,-0.558 1.464,-0.558 2.024,0 3.286,3.286 8.634,3.286 11.918,0 0.561,-0.558 1.467,-0.561 2.024,0 0.559,0.557 0.559,1.462 0.002,2.023 C 11.563,4.401 4.401,4.401 0,0"
         style="fill:#cc5a27;fill-opacity:1;fill-rule:nonzero;stroke:none"
         id="path308" />
    </g>
    <g
       id="g310"
       transform="matrix(1.25,0,0,-1.25,168.58737,487.14)"
       inkscape:export-filename="/var/www/html/tugruero_disenio/img/logo1.png"
       inkscape:export-xdpi="90"
       inkscape:export-ydpi="90">
      <path
         inkscape:connector-curvature="0"
         d="m 0,0 c -0.56,-0.558 -0.56,-1.463 0,-2.023 0.56,-0.56 1.464,-0.56 2.022,0 5.428,5.427 14.257,5.426 19.685,0 0.56,-0.561 1.464,-0.561 2.024,0 0.559,0.557 0.559,1.463 0,2.023 C 17.187,6.542 6.542,6.542 0,0"
         style="fill:#cc5a27;fill-opacity:1;fill-rule:nonzero;stroke:none"
         id="path312" />
    </g>
    <g
       id="g314"
       transform="matrix(1.25,0,0,-1.25,178.27125,495.41025)"
       inkscape:export-filename="/var/www/html/tugruero_disenio/img/logo1.png"
       inkscape:export-xdpi="90"
       inkscape:export-ydpi="90">
      <path
         inkscape:connector-curvature="0"
         d="m 0,0 c -0.558,-0.559 -0.555,-1.465 0,-2.021 0.561,-0.561 1.467,-0.561 2.024,0 1.532,1.529 4.023,1.529 5.552,0 0.56,-0.561 1.465,-0.561 2.024,0 0.559,0.555 0.558,1.46 0,2.021 C 6.954,2.645 2.646,2.645 0,0"
         style="fill:#404040;fill-opacity:1;fill-rule:nonzero;stroke:none"
         id="path316" />
    </g>
    <g
       id="g318"
       transform="matrix(1.25,0,0,-1.25,174.29412,490.05387)"
       inkscape:export-filename="/var/www/html/tugruero_disenio/img/logo1.png"
       inkscape:export-xdpi="90"
       inkscape:export-ydpi="90">
      <path
         inkscape:connector-curvature="0"
         d="m 0,0 c -0.56,-0.559 -0.558,-1.465 0,-2.024 0.559,-0.558 1.463,-0.558 2.023,0 3.286,3.289 8.633,3.289 11.919,0 0.56,-0.558 1.465,-0.558 2.024,0 0.557,0.559 0.557,1.463 0.001,2.024 C 11.563,4.402 4.4,4.403 0,0"
         style="fill:#404040;fill-opacity:1;fill-rule:nonzero;stroke:none"
         id="path320" />
    </g>
    <g
       id="g322"
       transform="matrix(1.25,0,0,-1.25,169.686,484.94274)"
       inkscape:export-filename="/var/www/html/tugruero_disenio/img/logo1.png"
       inkscape:export-xdpi="90"
       inkscape:export-ydpi="90">
      <path
         inkscape:connector-curvature="0"
         d="m 0,0 c -0.56,-0.558 -0.56,-1.463 0,-2.023 0.56,-0.56 1.464,-0.56 2.022,0 5.427,5.427 14.258,5.426 19.686,0 0.559,-0.56 1.463,-0.56 2.021,0 0.561,0.559 0.561,1.463 0.001,2.022 C 17.187,6.54 6.542,6.54 0,0"
         style="fill:#404040;fill-opacity:1;fill-rule:nonzero;stroke:none"
         id="path324" />
    </g>
    <g
       id="g326"
       transform="matrix(1.25,0,0,-1.25,250.3635,515.33462)"
       inkscape:export-filename="/var/www/html/tugruero_disenio/img/logo1.png"
       inkscape:export-xdpi="90"
       inkscape:export-ydpi="90">
      <path
         inkscape:connector-curvature="0"
         d="m 0,0 11.393,0 0,-32.297 5.427,0 0,32.297 11.339,0 0,5.48 L 0,5.48 0,0 z"
         style="fill:#f27730;fill-opacity:1;fill-rule:nonzero;stroke:none"
         id="path328" />
    </g>
    <g
       id="g330"
       transform="matrix(1.25,0,0,-1.25,318.00387,541.39662)"
       inkscape:export-filename="/var/www/html/tugruero_disenio/img/logo1.png"
       inkscape:export-xdpi="90"
       inkscape:export-ydpi="90">
      <path
         inkscape:connector-curvature="0"
         d="m 0,0 c 0,-4.139 -4.462,-6.232 -8.383,-6.232 -3.977,0 -8.436,2.039 -8.436,6.177 l 0,26.332 -5.483,0 0,-26.277 c 0,-7.684 7.308,-11.66 13.919,-11.66 6.448,0 13.864,3.976 13.864,11.605 l 0,26.332 L 0,26.277 0,0 z"
         style="fill:#f27730;fill-opacity:1;fill-rule:nonzero;stroke:none"
         id="path332" />
    </g>
    <g
       id="g334"
       transform="matrix(1.25,0,0,-1.25,345.63087,509.42399)"
       inkscape:export-filename="/var/www/html/tugruero_disenio/img/logo1.png"
       inkscape:export-xdpi="90"
       inkscape:export-ydpi="90">
      <path
         inkscape:connector-curvature="0"
         d="m 0,0 -14.938,-38.959 3.599,0 L 3.708,0 0,0 z"
         style="fill:#f27730;fill-opacity:1;fill-rule:nonzero;stroke:none"
         id="path336" />
    </g>
    <g
       id="g338"
       transform="matrix(1.25,0,0,-1.25,370.69425,539.78525)"
       inkscape:export-filename="/var/www/html/tugruero_disenio/img/logo1.png"
       inkscape:export-xdpi="90"
       inkscape:export-ydpi="90">
      <path
         inkscape:connector-curvature="0"
         d="m 0,0 13.917,0 c -2.256,-5.482 -7.2,-7.631 -11.821,-7.631 -7.363,0 -13.058,5.86 -13.058,13.812 0,7.897 5.695,13.649 13.058,13.649 4.781,0 10.585,-2.205 12.092,-8.276 l 5.802,0 C 18.002,21.547 9.297,25.256 2.096,25.256 c -10.372,0 -18.485,-7.952 -18.485,-19.075 0,-11.071 7.951,-19.025 18.485,-19.025 6.825,0 14.561,4.623 17.141,11.824 l 0,-0.053 c 0.485,1.235 0.753,3.328 1.022,6.501 L 0,5.428 0,0 z"
         style="fill:#404040;fill-opacity:1;fill-rule:nonzero;stroke:none"
         id="path340" />
    </g>
    <path
       inkscape:connector-curvature="0"
       d="m 433.62887,523.46324 c 0,-7.455 -5.10375,-14.97875 -15.315,-14.97875 l -17.1275,0 0,47.01875 6.7175,0 0,-40.16875 10.41,0 c 5.71125,0 8.53125,4.09625 8.53125,8.12875 0,4.1 -2.82,8.195 -8.53125,8.195 l -7.92625,0 0,3.2225 17.13,20.6225 8.8,0 -14.84375,-17.665 c 8.06,-1.41 12.155,-7.72625 12.155,-14.375"
       style="fill:#404040;fill-opacity:1;fill-rule:nonzero;stroke:none"
       id="path344"
       inkscape:export-filename="/var/www/html/tugruero_disenio/img/logo1.png"
       inkscape:export-xdpi="90"
       inkscape:export-ydpi="90" />
    <g
       id="g346"
       transform="matrix(1.25,0,0,-1.25,465.87125,541.39662)"
       inkscape:export-filename="/var/www/html/tugruero_disenio/img/logo1.png"
       inkscape:export-xdpi="90"
       inkscape:export-ydpi="90">
      <path
         inkscape:connector-curvature="0"
         d="m 0,0 c 0,-4.139 -4.461,-6.232 -8.383,-6.232 -3.978,0 -8.437,2.039 -8.437,6.177 l 0,26.332 -5.481,0 0,-26.277 c 0,-7.684 7.309,-11.66 13.918,-11.66 6.447,0 13.863,3.976 13.863,11.605 l 0,26.332 -5.48,0 L 0,0 z"
         style="fill:#404040;fill-opacity:1;fill-rule:nonzero;stroke:none"
         id="path348" />
    </g>
    <g
       id="g350"
       transform="matrix(1.25,0,0,-1.25,485.34637,535.41999)"
       inkscape:export-filename="/var/www/html/tugruero_disenio/img/logo1.png"
       inkscape:export-xdpi="90"
       inkscape:export-ydpi="90">
      <path
         inkscape:connector-curvature="0"
         d="m 0,0 17.036,0 0,5.482 -17.036,0 0,10.586 17.41,0 0,5.428 -22.891,0 0,-37.562 22.946,0 0,5.427 L 0,-10.639 0,0 z"
         style="fill:#404040;fill-opacity:1;fill-rule:nonzero;stroke:none"
         id="path352" />
    </g>
    <g
       id="g354"
       transform="matrix(1.25,0,0,-1.25,544.0525,523.46324)"
       inkscape:export-filename="/var/www/html/tugruero_disenio/img/logo1.png"
       inkscape:export-xdpi="90"
       inkscape:export-ydpi="90">
      <path
         inkscape:connector-curvature="0"
         d="m 0,0 c 0,5.964 -4.085,11.983 -12.252,11.983 l -13.703,0 0,-37.615 5.373,0 0,32.135 8.33,0 c 4.566,0 6.824,-3.277 6.824,-6.503 0,-3.28 -2.258,-6.556 -6.824,-6.556 l -6.342,0 0,-2.578 13.703,-16.498 7.037,0 L -9.727,-11.5 C -3.278,-10.372 0,-5.319 0,0"
         style="fill:#404040;fill-opacity:1;fill-rule:nonzero;stroke:none"
         id="path356" />
    </g>
    <g
       id="g358"
       transform="matrix(1.25,0,0,-1.25,583.14425,544.1505)"
       inkscape:export-filename="/var/www/html/tugruero_disenio/img/logo1.png"
       inkscape:export-xdpi="90"
       inkscape:export-ydpi="90">
      <path
         inkscape:connector-curvature="0"
         d="m 0,0 c -2.526,-2.525 -6.02,-4.084 -9.727,-4.084 -3.709,0 -7.148,1.559 -9.619,4.084 -2.47,2.473 -4.031,5.91 -4.031,9.728 0,3.814 1.561,7.251 4.031,9.723 2.471,2.526 5.91,4.087 9.619,4.087 3.707,0 7.201,-1.561 9.727,-4.087 C 2.418,16.979 3.976,13.597 3.976,9.728 3.976,5.856 2.418,2.473 0,0 m 3.867,23.322 c -3.493,3.491 -8.275,5.694 -13.594,5.694 -5.265,0 -10.103,-2.203 -13.543,-5.694 -3.384,-3.494 -5.587,-8.276 -5.587,-13.594 0,-5.324 2.203,-10.105 5.587,-13.597 3.44,-3.545 8.278,-5.697 13.543,-5.697 5.319,0 10.101,2.152 13.594,5.697 3.385,3.492 5.589,8.273 5.589,13.597 0,5.318 -2.204,10.1 -5.589,13.594"
         style="fill:#404040;fill-opacity:1;fill-rule:nonzero;stroke:none"
         id="path360" />
    </g>
    <g
       id="g362"
       transform="matrix(1.25,0,0,-1.25,578.42012,532.25837)"
       inkscape:export-filename="/var/www/html/tugruero_disenio/img/logo1.png"
       inkscape:export-xdpi="90"
       inkscape:export-ydpi="90">
      <path
         inkscape:connector-curvature="0"
         d="m 0,0 c 0,-3.271 -2.65,-5.926 -5.92,-5.926 -3.271,0 -5.924,2.655 -5.924,5.926 0,3.268 2.653,5.918 5.924,5.918 C -2.65,5.918 0,3.268 0,0"
         style="fill:#f27730;fill-opacity:1;fill-rule:nonzero;stroke:none"
         id="path364" />
    </g>
  </g>
</svg>
