<?xml version="1.0" encoding="UTF-8" standalone="no"?>
<!-- Created with Inkscape (http://www.inkscape.org/) -->

<svg
   xmlns:dc="http://purl.org/dc/elements/1.1/"
   xmlns:cc="http://creativecommons.org/ns#"
   xmlns:rdf="http://www.w3.org/1999/02/22-rdf-syntax-ns#"
   xmlns:svg="http://www.w3.org/2000/svg"
   xmlns="http://www.w3.org/2000/svg"
   xmlns:sodipodi="http://sodipodi.sourceforge.net/DTD/sodipodi-0.dtd"
   xmlns:inkscape="http://www.inkscape.org/namespaces/inkscape"
   id="svg2"
   version="1.1"
   inkscape:version="0.91 r13725"
   width="990"
   height="765"
   xml:space="preserve"
   sodipodi:docname="grua linea negra.svg"><metadata
     id="metadata8"><rdf:RDF><cc:Work
         rdf:about=""><dc:format>image/svg+xml</dc:format><dc:type
           rdf:resource="http://purl.org/dc/dcmitype/StillImage" /><dc:title /></cc:Work></rdf:RDF></metadata><defs
     id="defs6"><clipPath
       clipPathUnits="userSpaceOnUse"
       id="clipPath16"><path
         d="M 0,612 792,612 792,0 0,0 0,612 z"
         id="path18" /></clipPath></defs><sodipodi:namedview
     pagecolor="#ffffff"
     bordercolor="#666666"
     borderopacity="1"
     objecttolerance="10"
     gridtolerance="10"
     guidetolerance="10"
     inkscape:pageopacity="0"
     inkscape:pageshadow="2"
     inkscape:window-width="1024"
     inkscape:window-height="705"
     id="namedview4"
     showgrid="false"
     inkscape:zoom="0.87256052"
     inkscape:cx="312.96878"
     inkscape:cy="279.39114"
     inkscape:window-x="-8"
     inkscape:window-y="-8"
     inkscape:window-maximized="1"
     inkscape:current-layer="g20" /><g
     id="g10"
     inkscape:groupmode="layer"
     inkscape:label="grua linea negra"
     transform="matrix(1.25,0,0,-1.25,0,765)"><g
       id="g12"
       transform="matrix(0.42838401,0,0,0.42838401,68.816124,101.96921)"
       inkscape:export-filename="/var/www/html/tugruero/web/img/grua_linea_negra.png"
       inkscape:export-xdpi="90"
       inkscape:export-ydpi="90"><g
         id="g14"
         clip-path="url(#clipPath16)"><g
           id="g20"
           transform="translate(210.3301,305.5552)"><path
             inkscape:connector-curvature="0"
             d="m 26.536899,32.565126 28.972665,68.768274 44.666086,0 0,-68.768274 -73.638751,0 z m 19.073783,-71.864318 c 0,7.000304 4.03064,13.03441 9.914682,15.893504 2.340453,1.153118 4.981036,1.800757 7.758511,1.800757 9.761989,0 17.696888,-7.921738 17.696888,-17.694261 0,-0.318546 -0.01015,-0.637104 -0.02628,-0.955662 -0.508107,-9.324956 -8.219239,-16.712264 -17.670565,-16.712264 -6.115714,0 -11.517983,3.106567 -14.695623,7.853292 -1.719149,2.572125 -2.764325,5.594445 -2.948608,8.858972 -0.02368,0.318558 -0.02898,0.637116 -0.02898,0.955662 m 107.845173,54.030527 47.50148,83.906208 0,-83.906208 -47.50148,0 z m 34.02214,-54.030527 c 0,9.772523 7.90858,17.694261 17.68637,17.694261 9.76198,0 17.69687,-7.921738 17.69687,-17.694261 0,-9.772511 -7.93489,-17.667926 -17.69687,-17.667926 -9.77779,0 -17.68637,7.895415 -17.68637,17.667926 M 2.0608797,30.456345 l 0,-64.308517 c 0,-3.527788 2.8590939,-6.402682 6.3974159,-6.402682 l 19.4844834,0 c 0.516001,-19.081679 16.13571,-34.409152 35.341119,-34.409152 19.234371,0 34.854079,15.327473 35.359547,34.409152 l 71.177185,0 c 0.50811,-19.081679 16.13834,-34.409152 35.34376,-34.409152 19.21857,0 34.84353,15.327473 35.35428,34.409152 l 25.45276,0 c 3.54096,0 6.41321,2.874894 6.41321,6.402682 l 0,42.1703018 c 0,3.5567502 -2.87225,6.4132052 -6.41321,6.4132052 l -14.23228,0 -12.79746,0 -19.61085,0 0,92.120165 c 2.33782,-0.73451 4.79675,-1.23472 7.38468,-1.23472 0.50284,0 0.96093,0.129 1.4427,0.14216 l 3.29875,-8.643091 c -7.46628,-5.952499 -10.62287,-16.296297 -7.05821,-25.7213 2.16142,-5.647103 6.35792,-10.130565 11.88129,-12.592121 2.9644,-1.3374 6.10518,-1.992933 9.26703,-1.992933 2.71167,0 5.43386,0.50284 8.02179,1.484826 6.10519,2.311502 10.8993,7.147729 13.17657,13.263454 1.32424,3.548856 -0.48968,7.526839 -4.04117,8.851078 -3.60151,1.326866 -7.56106,-0.481785 -8.88793,-4.06223 -0.88984,-2.372043 -2.76169,-4.262312 -5.12846,-5.157424 -2.17987,-0.839826 -4.61773,-0.784541 -6.75283,0.18955 -2.16407,0.971463 -3.80949,2.698506 -4.64142,4.928379 -1.71651,4.546641 0.57392,9.632991 5.11794,11.370557 1.71387,0.666067 3.1013,1.969249 3.83845,3.627835 0.75821,1.655958 0.80033,3.543589 0.16848,5.267993 l -5.21534,13.682047 c 6.47903,4.55191 10.75714,12.07084 10.75714,20.59284 0,13.90318 -11.32053,25.23162 -25.24478,25.23162 -10.98092,0 -18.81842,-7.60055 -23.70204,-16.91235 -0.17638,-0.35541 -55.16521,-97.174913 -70.21362,-123.662327 l 0,70.239949 0,12.776403 0,17.696885 c 0,3.5357 -2.86436,6.38952 -6.38426,6.38952 l -24.44445,0 c -0.26853,10.01472 -8.466701,18.06282 -18.536703,18.06282 -10.056852,0 -18.255013,-8.0481 -18.534087,-18.06282 l -18.107575,0 c -2.522119,0 -4.828344,-1.48219 -5.839291,-3.7779 L 2.6137492,33.070605 C 2.2478011,32.241301 2.0608797,31.356723 2.0608797,30.456345"
             style="fill:#ed884a;fill-opacity:1;fill-rule:nonzero;stroke:#000000;stroke-width:2.10614538;stroke-miterlimit:4.0999999;stroke-dasharray:none;stroke-opacity:1"
             id="path106"
             inkscape:export-xdpi="90"
             inkscape:export-ydpi="90" /><g
             id="g108"
             transform="matrix(2.6326818,0,0,2.6326818,61.836436,141.11954)"
             inkscape:export-xdpi="90"
             inkscape:export-ydpi="90"
             style="stroke:#000000;stroke-width:0.80000001;stroke-miterlimit:4.0999999;stroke-dasharray:none;stroke-opacity:1"><path
               inkscape:connector-curvature="0"
               d="m 0,0 c -0.425,-0.558 -0.958,-0.981 -1.548,-1.267 -0.592,-0.277 -1.23,-0.425 -1.878,-0.427 -0.908,0 -1.84,0.288 -2.607,0.882 l 0,-0.002 -7.51,5.725 c -0.547,0.426 -0.972,0.957 -1.258,1.551 -0.282,0.593 -0.427,1.228 -0.427,1.884 0,0.901 0.285,1.835 0.878,2.601 0.421,0.556 0.961,0.988 1.551,1.263 0.588,0.287 1.229,0.437 1.877,0.437 0.905,0 1.835,-0.295 2.612,-0.885 l 7.507,-5.722 -0.004,0 C -0.259,5.61 0.165,5.074 0.442,4.49 0.74,3.896 0.888,3.261 0.888,2.614 0.888,1.704 0.592,0.774 0,0"
               style="fill:#ed884a;fill-opacity:1;fill-rule:nonzero;stroke:#000000;stroke-width:0.80000001;stroke-miterlimit:4.0999999;stroke-dasharray:none;stroke-opacity:1"
               id="path110" /></g><g
             id="g112"
             transform="matrix(2.6326818,0,0,2.6326818,83.434154,153.19801)"
             inkscape:export-xdpi="90"
             inkscape:export-ydpi="90"
             style="stroke:#000000;stroke-width:0.80000001;stroke-miterlimit:4.0999999;stroke-dasharray:none;stroke-opacity:1"><path
               inkscape:connector-curvature="0"
               d="M 0,0 C -1.184,0 -2.265,0.484 -3.043,1.263 -3.819,2.038 -4.306,3.12 -4.306,4.3 l 0,9.927 c 0,1.189 0.487,2.271 1.263,3.05 0.772,0.781 1.856,1.259 3.043,1.259 1.187,0 2.271,-0.478 3.049,-1.259 0.778,-0.773 1.266,-1.853 1.26,-3.05 l 0,-9.927 C 4.315,3.12 3.827,2.038 3.049,1.263 2.271,0.484 1.187,0 0,0"
               style="fill:#ed884a;fill-opacity:1;fill-rule:nonzero;stroke:#000000;stroke-width:0.80000001;stroke-miterlimit:4.0999999;stroke-dasharray:none;stroke-opacity:1"
               id="path114" /></g><g
             id="g116"
             transform="matrix(2.6326818,0,0,2.6326818,140.68576,154.0489)"
             inkscape:export-xdpi="90"
             inkscape:export-ydpi="90"
             style="stroke:#000000;stroke-width:0.80000001;stroke-miterlimit:4.0999999;stroke-dasharray:none;stroke-opacity:1"><path
               inkscape:connector-curvature="0"
               d="m 0,0 0,0 -7.502,-5.726 c -0.777,-0.584 -1.708,-0.879 -2.612,-0.879 -0.645,0.001 -1.293,0.15 -1.877,0.427 -0.592,0.285 -1.131,0.709 -1.548,1.267 -0.594,0.774 -0.89,1.704 -0.89,2.614 0,0.647 0.148,1.282 0.436,1.876 0.287,0.584 0.715,1.12 1.261,1.55 l 7.502,5.722 c 0.778,0.589 1.699,0.879 2.609,0.879 0.65,0 1.286,-0.146 1.877,-0.431 C -0.146,7.023 0.384,6.592 0.809,6.036 1.398,5.27 1.696,4.336 1.696,3.435 1.696,2.779 1.545,2.137 1.262,1.551 0.979,0.957 0.549,0.426 0,0"
               style="fill:#ed884a;fill-opacity:1;fill-rule:nonzero;stroke:#000000;stroke-width:0.80000001;stroke-miterlimit:4.0999999;stroke-dasharray:none;stroke-opacity:1"
               id="path118" /></g><g
             id="g120"
             transform="matrix(2.6326818,0,0,2.6326818,301.31043,8.3028594)"
             inkscape:export-xdpi="90"
             inkscape:export-ydpi="90"
             style="stroke:#000000;stroke-width:0.80000001;stroke-miterlimit:4.0999999;stroke-dasharray:none;stroke-opacity:1"><path
               inkscape:connector-curvature="0"
               d="m 0,0 c -3.347,1.472 -4.868,5.393 -3.396,8.737 1.475,3.345 5.391,4.866 8.736,3.392 C 8.687,10.655 10.212,6.737 8.736,3.391 7.263,0.048 3.346,-1.478 0,0 M 41.474,12.908 17.14,23.623 c 5.386,0.661 19.666,2.256 22.47,1.024 1.126,-0.498 3.37,-1.487 5.887,-2.595 l -4.023,-9.144 z m 4.955,-2.18 4.019,9.139 c 3.637,-1.602 6.717,-2.963 6.717,-2.963 3.404,-1.496 5.108,-5.342 7.081,-9.798 0.749,-1.696 1.568,-3.529 2.525,-5.338 l -20.342,8.96 z m 11.018,-36.027 c -3.348,1.47 -4.872,5.391 -3.396,8.737 1.472,3.344 5.392,4.866 8.739,3.394 3.347,-1.472 4.868,-5.395 3.395,-8.74 -1.474,-3.345 -5.395,-4.868 -8.738,-3.391 m -69.27,57.387 c -4.236,0.389 -8.611,-6.72 -9.27,-12.127 -0.26,-2.138 1.126,-5.147 5.778,-7.194 l 5.875,-2.584 c -2.118,-6.214 0.841,-13.134 6.957,-15.828 6.109,-2.693 13.215,-0.202 16.37,5.552 l 34.117,-15.025 c -2.111,-6.212 0.842,-13.132 6.955,-15.828 6.115,-2.689 13.22,-0.201 16.373,5.555 l 7.145,-3.147 c 2.057,-0.909 4.457,0.029 5.366,2.087 l 5.245,11.913 c 0.731,1.658 0.259,3.547 -1.03,4.685 l -9.79,5.962 c -1.893,3.278 -3.407,6.694 -4.781,9.795 -2.912,6.58 -5.429,12.261 -10.459,14.474 0,0 -20.578,9.076 -23.583,10.398 -2.993,1.318 -34.259,-1.884 -34.259,-1.884 0,0 -14.79,2.991 -17.009,3.196"
               style="fill:#4c4d4b;fill-opacity:1;fill-rule:nonzero;stroke:#000000;stroke-width:0.80000001;stroke-miterlimit:4.0999999;stroke-dasharray:none;stroke-opacity:1"
               id="path122" /></g></g></g></g></g></svg>