<?xml version="1.0" encoding="UTF-8" standalone="no"?>
<!-- Created with Inkscape (http://www.inkscape.org/) -->

<svg
   xmlns:dc="http://purl.org/dc/elements/1.1/"
   xmlns:cc="http://creativecommons.org/ns#"
   xmlns:rdf="http://www.w3.org/1999/02/22-rdf-syntax-ns#"
   xmlns:svg="http://www.w3.org/2000/svg"
   xmlns="http://www.w3.org/2000/svg"
   xmlns:sodipodi="http://sodipodi.sourceforge.net/DTD/sodipodi-0.dtd"
   xmlns:inkscape="http://www.inkscape.org/namespaces/inkscape"
   id="svg2"
   version="1.1"
   inkscape:version="0.48.4 r9939"
   width="990"
   height="765"
   xml:space="preserve"
   sodipodi:docname="grua linea negra.ai"><metadata
     id="metadata8"><rdf:RDF><cc:Work
         rdf:about=""><dc:format>image/svg+xml</dc:format><dc:type
           rdf:resource="http://purl.org/dc/dcmitype/StillImage" /><dc:title></dc:title></cc:Work></rdf:RDF></metadata><defs
     id="defs6"><clipPath
       clipPathUnits="userSpaceOnUse"
       id="clipPath16"><path
         d="M 0,612 792,612 792,0 0,0 0,612 z"
         id="path18" /></clipPath></defs><sodipodi:namedview
     pagecolor="#ffffff"
     bordercolor="#666666"
     borderopacity="1"
     objecttolerance="10"
     gridtolerance="10"
     guidetolerance="10"
     inkscape:pageopacity="0"
     inkscape:pageshadow="2"
     inkscape:window-width="1680"
     inkscape:window-height="961"
     id="namedview4"
     showgrid="false"
     inkscape:zoom="0.30849673"
     inkscape:cx="495"
     inkscape:cy="382.5"
     inkscape:window-x="0"
     inkscape:window-y="28"
     inkscape:window-maximized="1"
     inkscape:current-layer="g10" /><g
     id="g10"
     inkscape:groupmode="layer"
     inkscape:label="grua linea negra"
     transform="matrix(1.25,0,0,-1.25,0,765)"><g
       id="g12"
       transform="matrix(0.42838401,0,0,0.42838401,68.816124,101.96921)"
       inkscape:export-filename="/var/www/html/tugruero/web/img/grua_linea_negra.png"
       inkscape:export-xdpi="90"
       inkscape:export-ydpi="90"><g
         id="g14"
         clip-path="url(#clipPath16)"><g
           id="g20"
           transform="translate(210.3301,305.5552)"><path
             d="m 0,0 28.916,68.633 44.58,0 L 73.496,0 0,0 z m 19.037,-71.723 c 0,6.983 4.022,13.009 9.894,15.862 2.336,1.15 4.972,1.796 7.743,1.796 9.743,0 17.664,-7.909 17.664,-17.658 0,-0.319 -0.01,-0.638 -0.025,-0.955 -0.51,-9.31 -8.204,-16.679 -17.639,-16.679 -6.103,0 -11.494,3.099 -14.665,7.836 -1.716,2.565 -2.761,5.584 -2.943,8.843 -0.025,0.317 -0.029,0.636 -0.029,0.955 m 107.634,53.921 47.41,83.743 0,-83.743 -47.41,0 z m 33.955,-53.921 c 0,9.749 7.894,17.658 17.652,17.658 9.743,0 17.664,-7.909 17.664,-17.658 0,-9.756 -7.921,-17.634 -17.664,-17.634 -9.758,0 -17.652,7.878 -17.652,17.634 m -185.054,69.619 0,-64.186 c 0,-3.52 2.852,-6.388 6.386,-6.388 l 19.446,0 c 0.513,-19.045 16.102,-34.343 35.27,-34.343 19.199,0 34.787,15.298 35.292,34.343 l 71.038,0 c 0.508,-19.045 16.107,-34.343 35.274,-34.343 19.184,0 34.777,15.298 35.287,34.343 l 25.404,0 c 3.534,0 6.399,2.868 6.399,6.388 l 0,42.088 c 0,3.551 -2.865,6.4 -6.399,6.4 l -14.205,0 -12.774,0 -19.57,0 0,91.942 c 2.333,-0.731 4.786,-1.231 7.368,-1.231 0.502,0 0.961,0.128 1.441,0.14 l 3.292,-8.626 c -7.452,-5.941 -10.603,-16.264 -7.043,-25.67 2.155,-5.638 6.344,-10.11 11.857,-12.569 2.958,-1.335 6.094,-1.987 9.25,-1.987 2.704,0 5.422,0.503 8.006,1.484 6.091,2.305 10.877,7.132 13.149,13.234 1.322,3.543 -0.489,7.512 -4.033,8.834 -3.595,1.324 -7.547,-0.48 -8.87,-4.054 -0.889,-2.366 -2.756,-4.255 -5.119,-5.148 -2.176,-0.839 -4.609,-0.782 -6.739,0.19 -2.161,0.97 -3.802,2.692 -4.633,4.919 -1.712,4.537 0.574,9.615 5.108,11.347 1.712,0.667 3.095,1.966 3.831,3.621 0.757,1.655 0.798,3.538 0.167,5.26 l -5.204,13.653 c 6.466,4.545 10.736,12.047 10.736,20.554 0,13.877 -11.298,25.182 -25.196,25.182 -10.959,0 -18.782,-7.585 -23.655,-16.879 -0.176,-0.354 -55.058,-96.987 -70.078,-123.422 l 0,70.104 0,12.75 0,17.664 c 0,3.529 -2.857,6.377 -6.37,6.377 l -24.397,0 c -0.268,9.995 -8.451,18.026 -18.502,18.026 -10.035,0 -18.219,-8.031 -18.496,-18.026 l -18.073,0 c -2.518,0 -4.82,-1.481 -5.829,-3.772 L -23.878,0.503 c -0.363,-0.826 -0.55,-1.709 -0.55,-2.607"
             style="fill:#e12f31;fill-opacity:1;fill-rule:nonzero;stroke:none"
             id="path22"
             inkscape:connector-curvature="0" /></g><g
           id="g24"
           transform="translate(213.3428,307.5552)"><path
             d="m 0,0 68.483,0 0,64.633 -41.252,0 L 0,0 z m 72.483,-4 -78.508,0 30.601,72.633 47.907,0 0,-72.633 z m 54.606,-13.802 41.979,0 0,74.151 -41.979,-74.151 z m 45.979,-4 -52.84,0 52.84,93.336 0,-93.336 z M 33.661,-58.065 c -2.373,0 -4.745,-0.55 -6.86,-1.591 -5.417,-2.632 -8.777,-8.02 -8.777,-14.067 0,-0.265 0.002,-0.529 0.023,-0.793 0.161,-2.865 1.062,-5.577 2.612,-7.893 2.912,-4.35 7.773,-6.948 13.002,-6.948 8.318,0 15.188,6.496 15.642,14.788 0.013,0.274 0.022,0.56 0.022,0.846 0,8.634 -7.027,15.658 -15.664,15.658 m 0,-35.292 c -6.567,0 -12.67,3.261 -16.327,8.724 -1.947,2.911 -3.081,6.315 -3.277,9.843 -0.027,0.321 -0.033,0.693 -0.033,1.067 0,7.591 4.223,14.358 11.02,17.661 2.652,1.305 5.635,1.997 8.617,1.997 10.843,0 19.664,-8.818 19.664,-19.658 0,-0.353 -0.011,-0.703 -0.028,-1.054 -0.57,-10.424 -9.195,-18.58 -19.636,-18.58 m 141.605,35.292 c -8.631,0 -15.652,-7.024 -15.652,-15.658 0,-8.62 7.021,-15.634 15.652,-15.634 8.636,0 15.664,7.014 15.664,15.634 0,8.634 -7.028,15.658 -15.664,15.658 m 0,-35.292 c -10.836,0 -19.652,8.808 -19.652,19.634 0,10.84 8.816,19.658 19.652,19.658 10.842,0 19.664,-8.818 19.664,-19.658 0,-10.826 -8.822,-19.634 -19.664,-19.634 m 16.141,162.887 0,-20.231 c 0.974,5.198 3.623,10.045 7.728,13.734 l -2.243,5.877 c -1.732,-0.039 -3.581,0.194 -5.485,0.62 M 67.006,-72.678 l 74.933,0 0.052,-1.947 c 0.484,-18.166 15.1,-32.396 33.275,-32.396 18.178,0 32.8,14.23 33.288,32.396 l 0.051,1.947 27.351,0 c 2.426,0 4.399,1.969 4.399,4.388 l 0,42.088 c 0,2.426 -1.973,4.4 -4.399,4.4 l -48.549,0 0,96.665 2.599,-0.815 c 2.446,-0.766 4.66,-1.139 6.769,-1.139 0.17,0 0.332,0.029 0.493,0.052 0.297,0.042 0.593,0.08 0.895,0.088 l 1.416,0.037 4.318,-11.316 -1.142,-0.911 c -7.019,-5.595 -9.599,-14.998 -6.42,-23.398 1.971,-5.154 5.808,-9.223 10.802,-11.451 4.923,-2.22 10.563,-2.423 15.731,-0.459 5.544,2.097 9.912,6.494 11.986,12.061 0.453,1.215 0.404,2.536 -0.137,3.722 -0.542,1.187 -1.508,2.089 -2.722,2.541 -0.552,0.204 -1.133,0.308 -1.719,0.308 -2.064,0 -3.86,-1.249 -4.576,-3.183 -1.1,-2.928 -3.39,-5.229 -6.288,-6.324 -2.651,-1.022 -5.683,-0.942 -8.276,0.242 -2.648,1.188 -4.668,3.334 -5.677,6.039 -2.094,5.548 0.718,11.793 6.269,13.915 1.207,0.47 2.202,1.407 2.717,2.565 0.537,1.176 0.576,2.504 0.117,3.759 l -5.75,15.083 1.273,0.894 c 6.19,4.352 9.887,11.424 9.887,18.918 0,12.783 -10.407,23.182 -23.197,23.182 -11.236,0 -18.102,-8.596 -21.883,-15.808 -0.221,-0.443 -63.758,-112.3 -70.111,-123.481 l -3.739,-6.58 0,108.086 c 0,2.413 -1.96,4.377 -4.37,4.377 l -26.343,0 -0.053,1.946 c -0.242,9.017 -7.491,16.08 -16.503,16.08 -8.85,0 -16.251,-7.214 -16.497,-16.082 l -0.054,-1.944 -20.018,0 c -1.739,0 -3.309,-1.013 -3.998,-2.578 L -25.065,-2.313 c -0.247,-0.564 -0.376,-1.171 -0.376,-1.791 l 0,-64.186 c 0,-2.419 1.967,-4.388 4.386,-4.388 l 21.393,0 0.052,-1.947 c 0.49,-18.166 15.105,-32.396 33.271,-32.396 18.187,0 32.811,14.229 33.293,32.396 l 0.052,1.947 z m 108.26,-38.343 c -19.705,0 -35.676,14.933 -37.173,34.343 l -67.241,0 c -1.495,-19.41 -17.474,-34.343 -37.191,-34.343 -19.696,0 -35.665,14.933 -37.168,34.343 l -17.548,0 c -4.624,0 -8.386,3.762 -8.386,8.388 l 0,64.186 c 0,1.177 0.242,2.325 0.719,3.411 L 9.549,84.911 c 1.325,3.006 4.331,4.956 7.655,4.956 l 16.217,0 c 1.231,10.253 9.827,18.026 20.352,18.026 10.538,0 19.136,-7.773 20.36,-18.026 l 22.539,0 c 4.616,0 8.37,-3.758 8.37,-8.377 l 0,-92.948 c 18.411,32.406 65.677,115.634 66.318,116.802 6.058,11.554 15.088,17.929 25.415,17.929 14.996,0 27.197,-12.193 27.197,-27.182 0,-8.275 -3.834,-16.108 -10.33,-21.252 l 4.667,-12.243 c 0.833,-2.274 0.753,-4.682 -0.217,-6.804 -0.946,-2.126 -2.698,-3.785 -4.924,-4.652 -3.512,-1.342 -5.284,-5.278 -3.964,-8.778 0.644,-1.725 1.882,-3.037 3.581,-3.8 1.644,-0.749 3.522,-0.797 5.2,-0.149 1.834,0.693 3.275,2.144 3.967,3.985 1.279,3.456 4.626,5.785 8.324,5.785 1.059,0 2.105,-0.187 3.11,-0.557 2.221,-0.829 3.984,-2.473 4.969,-4.63 0.985,-2.159 1.073,-4.566 0.247,-6.781 -2.477,-6.648 -7.695,-11.899 -14.316,-14.405 -2.82,-1.07 -5.752,-1.613 -8.714,-1.613 -3.502,0 -6.89,0.728 -10.072,2.163 -5.964,2.661 -10.549,7.519 -12.903,13.679 -0.529,1.395 -0.923,2.813 -1.19,4.239 l 0,-58.08 44.549,0 c 4.632,0 8.399,-3.768 8.399,-8.4 l 0,-42.088 c 0,-4.626 -3.767,-8.388 -8.399,-8.388 l -23.505,0 c -1.501,-19.41 -17.476,-34.343 -37.185,-34.343"
             style="fill:#383332;fill-opacity:1;fill-rule:nonzero;stroke:none"
             id="path26"
             inkscape:connector-curvature="0" /></g><g
           id="g28"
           transform="translate(245.5605,413.897)"><path
             d="m 0,0 c -1.116,-1.465 -2.519,-2.579 -4.068,-3.328 -1.555,-0.729 -3.232,-1.118 -4.933,-1.124 -2.388,0 -4.836,0.757 -6.85,2.317 l 0,-0.005 -19.733,15.044 c -1.439,1.119 -2.554,2.515 -3.307,4.075 -0.741,1.558 -1.12,3.228 -1.12,4.95 0,2.368 0.747,4.821 2.307,6.836 1.105,1.46 2.523,2.594 4.073,3.317 1.545,0.755 3.231,1.15 4.932,1.15 2.379,0 4.822,-0.777 6.866,-2.327 l 19.723,-15.034 -0.01,0 C -0.681,14.742 0.434,13.333 1.161,11.798 1.944,10.238 2.333,8.568 2.333,6.869 2.333,4.478 1.555,2.035 0,0"
             style="fill:#e12f31;fill-opacity:1;fill-rule:nonzero;stroke:none"
             id="path30"
             inkscape:connector-curvature="0" /></g><g
           id="g32"
           transform="translate(227.7095,415.8359)"><path
             d="m 0,0 3.225,-2.493 c 1.579,-1.223 3.576,-1.897 5.621,-1.898 1.4,0.005 2.776,0.32 4.088,0.935 1.303,0.63 2.429,1.552 3.326,2.729 1.241,1.624 1.924,3.632 1.924,5.657 0,1.407 -0.323,2.764 -0.959,4.032 -0.628,1.323 -1.564,2.483 -2.728,3.396 l -0.324,0.254 -19.368,14.763 c -2.749,2.085 -6.593,2.491 -9.707,0.971 -1.318,-0.615 -2.467,-1.553 -3.356,-2.728 -1.231,-1.589 -1.902,-3.581 -1.902,-5.628 0,-1.424 0.312,-2.8 0.926,-4.091 0.631,-1.307 1.55,-2.439 2.728,-3.355 L 0,-0.039 0,0 z m 8.854,-8.391 -0.004,0 c -1.669,0 -3.318,0.315 -4.85,0.913 L 4,-8.113 -18.946,9.375 c -1.683,1.309 -2.989,2.918 -3.895,4.795 -0.877,1.843 -1.319,3.797 -1.319,5.82 0,2.928 0.968,5.791 2.726,8.06 1.267,1.675 2.935,3.031 4.809,3.906 1.779,0.869 3.788,1.337 5.777,1.337 2.882,0 5.749,-0.971 8.074,-2.733 l 24.438,-18.628 -1.504,0 c 0.242,-0.395 0.463,-0.801 0.659,-1.216 0.899,-1.79 1.365,-3.75 1.365,-5.786 0,-2.897 -0.975,-5.768 -2.744,-8.083 -1.279,-1.68 -2.89,-2.997 -4.786,-3.914 -1.867,-0.875 -3.81,-1.317 -5.797,-1.324 l -0.003,0 z"
             style="fill:#383332;fill-opacity:1;fill-rule:nonzero;stroke:none"
             id="path34"
             inkscape:connector-curvature="0" /></g><g
           id="g36"
           transform="translate(267.1162,425.9521)"><path
             d="m 0,0 c -3.11,0 -5.952,1.272 -7.997,3.317 -2.038,2.038 -3.316,4.881 -3.316,7.981 l 0,26.083 c 0,3.125 1.278,5.969 3.316,8.016 2.03,2.05 4.877,3.308 7.997,3.308 3.12,0 5.967,-1.258 8.011,-3.308 2.045,-2.032 3.326,-4.87 3.311,-8.016 l 0,-26.083 C 11.337,8.198 10.056,5.355 8.011,3.317 5.967,1.272 3.12,0 0,0"
             style="fill:#e12f31;fill-opacity:1;fill-rule:nonzero;stroke:none"
             id="path38"
             inkscape:connector-curvature="0" /></g><g
           id="g40"
           transform="translate(267.1162,472.6567)"><path
             d="m 0,0 c -2.507,0 -4.843,-0.964 -6.576,-2.715 -1.767,-1.775 -2.737,-4.12 -2.737,-6.609 l 0,-26.083 c 0,-2.437 0.995,-4.831 2.73,-6.566 1.762,-1.761 4.1,-2.732 6.583,-2.732 2.494,0 4.836,0.97 6.596,2.731 1.745,1.74 2.738,4.129 2.726,6.557 l 0,26.093 C 9.334,-6.822 8.368,-4.482 6.601,-2.726 4.846,-0.966 2.504,0 0,0 m 0,-48.705 c -3.552,0 -6.894,1.387 -9.411,3.904 -2.48,2.48 -3.902,5.904 -3.902,9.394 l 0,26.083 c 0,3.553 1.384,6.902 3.898,9.428 C -6.928,2.615 -3.583,4 0,4 3.576,4 6.923,2.617 9.427,0.104 c 2.527,-2.511 3.912,-5.865 3.895,-9.437 l 0,-26.074 c 0.017,-3.481 -1.404,-6.91 -3.9,-9.397 C 6.91,-47.318 3.563,-48.705 0,-48.705"
             style="fill:#383332;fill-opacity:1;fill-rule:nonzero;stroke:none"
             id="path42"
             inkscape:connector-curvature="0" /></g><g
           id="g44"
           transform="translate(324.2568,426.8013)"><path
             d="m 0,0 0,0 -19.713,-15.044 c -2.04,-1.535 -4.489,-2.312 -6.862,-2.312 -1.696,0.005 -3.397,0.395 -4.932,1.124 -1.555,0.749 -2.972,1.862 -4.068,3.328 -1.56,2.034 -2.338,4.478 -2.338,6.869 0,1.699 0.39,3.369 1.146,4.929 0.753,1.534 1.878,2.943 3.311,4.072 L -13.742,18 c 2.045,1.55 4.463,2.312 6.856,2.312 1.707,0 3.377,-0.385 4.931,-1.134 1.57,-0.723 2.963,-1.858 4.08,-3.318 C 3.675,13.846 4.457,11.393 4.457,9.024 4.457,7.303 4.06,5.614 3.314,4.075 2.573,2.515 1.442,1.119 0,0"
             style="fill:#e12f31;fill-opacity:1;fill-rule:nonzero;stroke:none"
             id="path46"
             inkscape:connector-curvature="0" /></g><g
           id="g48"
           transform="translate(317.3706,445.1138)"><path
             d="m 0,0 c -2.05,0 -4.003,-0.659 -5.648,-1.906 l -19.708,-15.031 c -1.142,-0.899 -2.095,-2.069 -2.729,-3.363 -0.623,-1.284 -0.941,-2.649 -0.941,-4.048 0,-2.026 0.683,-4.033 1.924,-5.652 0.869,-1.161 2.022,-2.103 3.35,-2.743 1.261,-0.599 2.67,-0.921 4.067,-0.926 2.011,10e-4 4.019,0.679 5.655,1.911 l 19.703,15.035 c 1.169,0.907 2.114,2.067 2.722,3.344 0.622,1.286 0.948,2.696 0.948,4.091 0,2.016 -0.681,4.01 -1.917,5.616 -0.918,1.2 -2.068,2.139 -3.331,2.721 C 2.774,-0.315 1.407,0 0,0 m -19.689,-37.669 -0.007,0 c -1.982,0.007 -3.982,0.462 -5.783,1.318 -1.914,0.922 -3.575,2.282 -4.812,3.937 -1.758,2.293 -2.735,5.164 -2.735,8.066 0,2.008 0.452,3.96 1.345,5.802 0.902,1.837 2.24,3.483 3.874,4.771 L -8.069,1.278 C -5.718,3.06 -2.929,4 0,4 2.014,4 3.965,3.551 5.8,2.667 7.621,1.828 9.292,0.473 10.6,-1.237 c 1.767,-2.297 2.743,-5.158 2.743,-8.051 0,-1.994 -0.464,-4.007 -1.342,-5.821 -0.868,-1.827 -2.215,-3.486 -3.889,-4.784 l -19.726,-15.053 c -2.337,-1.759 -5.2,-2.723 -8.075,-2.723"
             style="fill:#383332;fill-opacity:1;fill-rule:nonzero;stroke:none"
             id="path50"
             inkscape:connector-curvature="0" /></g><g
           id="g52"
           transform="translate(484.5684,281.3379)"><path
             d="M 0,0 C -8.795,3.869 -12.791,14.169 -8.924,22.96 -5.048,31.746 5.241,35.744 14.03,31.87 22.824,28 26.832,17.705 22.954,8.909 19.082,0.128 8.791,-3.88 0,0 m 108.975,33.917 -63.94,28.155 c 14.154,1.738 51.674,5.927 59.043,2.692 2.959,-1.309 8.856,-3.908 15.468,-6.821 L 108.975,33.917 z m 13.018,-5.727 10.562,24.013 c 9.556,-4.209 17.649,-7.786 17.649,-7.786 8.945,-3.931 13.422,-14.036 18.606,-25.742 1.968,-4.46 4.122,-9.274 6.633,-14.03 l -53.45,23.545 z m 28.952,-94.664 c -8.799,3.865 -12.801,14.163 -8.924,22.959 3.87,8.787 14.169,12.785 22.963,8.914 8.794,-3.863 12.791,-14.173 8.919,-22.963 -3.872,-8.788 -14.174,-12.79 -22.958,-8.91 M -31.066,84.313 C -42.195,85.335 -53.69,66.658 -55.423,52.45 c -0.682,-5.616 2.959,-13.525 15.181,-18.903 l 15.436,-6.789 c -5.562,-16.33 2.212,-34.512 18.281,-41.59 16.052,-7.076 34.725,-0.527 43.013,14.591 l 89.644,-39.481 c -5.547,-16.325 2.213,-34.507 18.275,-41.59 16.07,-7.065 34.737,-0.527 43.022,14.597 l 18.772,-8.268 c 5.407,-2.391 11.711,0.077 14.101,5.481 l 13.782,31.305 c 1.921,4.356 0.679,9.319 -2.708,12.311 l -25.725,15.663 c -4.971,8.612 -8.949,17.587 -12.56,25.737 -7.651,17.289 -14.266,32.218 -27.481,38.031 0,0 -54.07,23.849 -61.965,27.322 -7.865,3.462 -90.02,-4.951 -90.02,-4.951 0,0 -38.859,7.859 -44.691,8.397"
             style="fill:#202021;fill-opacity:1;fill-rule:nonzero;stroke:none"
             id="path54"
             inkscape:connector-curvature="0" /></g></g></g></g></svg>