<?xml version="1.0" encoding="UTF-8" standalone="no"?>
<svg
   xmlns:dc="http://purl.org/dc/elements/1.1/"
   xmlns:cc="http://creativecommons.org/ns#"
   xmlns:rdf="http://www.w3.org/1999/02/22-rdf-syntax-ns#"
   xmlns:svg="http://www.w3.org/2000/svg"
   xmlns="http://www.w3.org/2000/svg"
   xmlns:sodipodi="http://sodipodi.sourceforge.net/DTD/sodipodi-0.dtd"
   xmlns:inkscape="http://www.inkscape.org/namespaces/inkscape"
   version="1.1"
   x="0px"
   y="0px"
   viewBox="0 0 100 100"
   enable-background="new 0 0 100 100"
   xml:space="preserve"
   id="svg2"
   inkscape:version="0.91 r13725"
   sodipodi:docname="where.svg"><metadata
     id="metadata18"><rdf:RDF><cc:Work
         rdf:about=""><dc:format>image/svg+xml</dc:format><dc:type
           rdf:resource="http://purl.org/dc/dcmitype/StillImage" /></cc:Work></rdf:RDF></metadata><defs
     id="defs16" /><sodipodi:namedview
     pagecolor="#ffffff"
     bordercolor="#666666"
     borderopacity="1"
     objecttolerance="10"
     gridtolerance="10"
     guidetolerance="10"
     inkscape:pageopacity="0"
     inkscape:pageshadow="2"
     inkscape:window-width="1024"
     inkscape:window-height="705"
     id="namedview14"
     showgrid="false"
     inkscape:zoom="2.36"
     inkscape:cx="36.252095"
     inkscape:cy="50"
     inkscape:window-x="-8"
     inkscape:window-y="-8"
     inkscape:window-maximized="1"
     inkscape:current-layer="svg2" /><g
     id="g4"
     transform="matrix(1.1195826,0,0,1.1195826,-2.5675968,-11.2941)"
     inkscape:export-xdpi="90"
     inkscape:export-ydpi="90"><path
       d="m 50.592,38.385 c 4.061,0 7.354,-3.292 7.354,-7.353 0,-4.06 -3.293,-7.352 -7.354,-7.352 -4.059,0 -7.352,3.292 -7.352,7.352 10e-4,4.06 3.294,7.353 7.352,7.353 z"
       id="path6"
       inkscape:connector-curvature="0"
       inkscape:export-xdpi="90"
       inkscape:export-ydpi="90" /><path
       d="m 77.511,43.692 c -1.33,-1.291 -3.461,-1.264 -4.758,0.072 l -4.924,5.074 -8.815,-6.222 C 58.445,42.215 57.767,42 57.072,42 l -13.017,0 c -0.565,0 -1.121,0.143 -1.616,0.414 L 32.36,47.937 27.262,42.63 c -1.286,-1.338 -3.416,-1.382 -4.757,-0.096 -1.34,1.289 -1.383,3.418 -0.095,4.758 l 6.883,7.165 c 1.054,1.095 2.704,1.353 4.036,0.618 L 42,50.32 42,91.082 c 0,1.857 1.142,3.364 3,3.364 1.858,0 3,-1.507 3,-3.364 L 48,66 l 4,0 0,25.082 c 0,1.857 1.141,3.364 2.999,3.364 1.858,0 3.001,-1.507 3.001,-3.364 l 0,-40.987 8.33,5.901 c 0.586,0.412 1.25,0.614 1.926,0.614 0.883,0 1.752,-0.348 2.406,-1.021 l 6.926,-7.139 c 1.293,-1.333 1.258,-3.463 -0.077,-4.758 z"
       id="path8"
       inkscape:connector-curvature="0"
       inkscape:export-xdpi="90"
       inkscape:export-ydpi="90" /><path
       style="fill:#ffffff;fill-opacity:1;fill-rule:evenodd"
       d="M 45.435592,92.921661 C 44.746093,91.869792 44.666873,89.848496 44.472434,68.3467 L 44.26057,44.917875 39.253771,47.670802 c -7.014323,3.856739 -6.801381,3.890024 -12.465835,-1.948532 -2.508695,-2.585802 -4.714104,-5.107803 -4.900909,-5.604446 -0.810577,-2.155021 1.015644,-4.522923 3.491577,-4.527227 1.337153,-0.0023 1.875971,0.383884 4.729329,3.389831 1.771135,1.865849 3.409348,3.392453 3.640475,3.392453 0.231126,0 3.01118,-1.430084 6.177898,-3.177966 l 5.757669,-3.177966 8.410047,0 8.410047,0 5.496895,3.825044 5.496894,3.825044 3.262894,-3.401315 c 2.894009,-3.016782 3.435106,-3.401315 4.786208,-3.401315 1.970703,0 3.60344,1.542999 3.60344,3.405387 0,1.082704 -0.670355,2.036267 -3.662589,5.209938 -5.628097,5.969365 -5.925347,6.215183 -7.515584,6.215183 -1.096907,0 -2.562297,-0.807451 -6.455182,-3.556902 l -5.036136,-3.556902 -0.211864,23.851711 c -0.20161,22.697174 -0.250937,23.894873 -1.019063,24.743343 -1.090817,1.204916 -3.333761,1.187004 -4.472906,-0.03572 C 55.94143,92.243479 55.913112,91.722674 55.913112,77.25061 l 0,-14.962474 -2.542373,0 -2.542372,0 0,15.042372 c 0,14.477403 -0.03183,15.074204 -0.847458,15.889831 -1.29173,1.291729 -3.602328,1.139898 -4.545317,-0.298678 z"
       id="path4146"
       inkscape:connector-curvature="0"
       transform="matrix(0.89319002,0,0,0.89319002,2.2933518,10.087777)"
       inkscape:export-xdpi="90"
       inkscape:export-ydpi="90" /><path
       style="fill:#ffffff;fill-opacity:1;fill-rule:evenodd"
       d="m 50.616502,30.67414 c -2.897375,-1.585143 -4.449152,-4.065922 -4.449152,-7.112726 0,-2.376818 0.583434,-3.94572 2.039668,-5.484836 5.06519,-5.353474 13.886513,-1.826646 13.786383,5.511894 -0.03539,2.593592 -0.968915,4.388132 -3.235878,6.220406 -1.337711,1.081205 -2.042802,1.318972 -4.237288,1.428878 -1.847672,0.09254 -3.011541,-0.0755 -3.903733,-0.563616 z"
       id="path4148"
       inkscape:connector-curvature="0"
       transform="matrix(0.89319002,0,0,0.89319002,2.2933518,10.087777)"
       inkscape:export-xdpi="90"
       inkscape:export-ydpi="90" /><path
       style="fill:#ffffff;fill-opacity:1;fill-rule:evenodd"
       d="m 52.396687,3.5457216 c -0.691818,-0.6918182 -0.195564,-2.1309568 1.242722,-3.60389533 1.805878,-1.84938697 1.702778,-2.90792797 -0.283228,-2.90792797 -0.721787,0 -1.661139,0.1866712 -2.087448,0.4148249 -0.563081,0.3013513 -0.91738,0.2433968 -1.295214,-0.2118644 -1.247702,-1.5033899 2.402238,-3.1775793 5.139555,-2.3574594 2.965102,0.8883663 3.323671,3.2122493 0.849173,5.50348619 -0.905179,0.83814191 -1.71775,1.90306021 -1.805713,2.36648561 -0.162732,0.857336 -1.2203,1.3358974 -1.759847,0.7963504 z"
       id="path4150"
       inkscape:connector-curvature="0"
       transform="matrix(0.89319002,0,0,0.89319002,2.2933518,10.087777)"
       inkscape:export-xdpi="90"
       inkscape:export-ydpi="90" /><path
       style="fill:#ffffff;fill-opacity:1;fill-rule:evenodd"
       d=""
       id="path4152"
       inkscape:connector-curvature="0"
       transform="matrix(0.89319002,0,0,0.89319002,2.2933518,10.087777)" /><path
       style="fill:#ffffff;fill-opacity:1;fill-rule:evenodd"
       d="m 52.396687,3.5457216 c -0.691818,-0.6918182 -0.195564,-2.1309568 1.242722,-3.60389533 1.805878,-1.84938697 1.702778,-2.90792797 -0.283228,-2.90792797 -0.721787,0 -1.661139,0.1866712 -2.087448,0.4148249 -0.563081,0.3013513 -0.91738,0.2433968 -1.295214,-0.2118644 -1.247702,-1.5033899 2.402238,-3.1775793 5.139555,-2.3574594 2.965102,0.8883663 3.323671,3.2122493 0.849173,5.50348619 -0.905179,0.83814191 -1.71775,1.90306021 -1.805713,2.36648561 -0.162732,0.857336 -1.2203,1.3358974 -1.759847,0.7963504 z"
       id="path4154"
       inkscape:connector-curvature="0"
       transform="matrix(0.89319002,0,0,0.89319002,2.2933518,10.087777)"
       inkscape:export-xdpi="90"
       inkscape:export-ydpi="90" /><path
       style="fill:#ffffff;fill-opacity:1;fill-rule:evenodd"
       d="M 52.608028,7.9661017 C 51.81307,7.1711444 52.010128,6.0176941 52.994259,5.7053428 54.306918,5.288721 55.299368,6.3986776 54.668382,7.5776844 54.130569,8.5825983 53.368238,8.7263125 52.608028,7.9661017 Z"
       id="path4156"
       inkscape:connector-curvature="0"
       transform="matrix(0.89319002,0,0,0.89319002,2.2933518,10.087777)"
       inkscape:export-xdpi="90"
       inkscape:export-ydpi="90" /></g><g
     id="g10"
     transform="matrix(1.1195826,0,0,1.1195826,-2.5675968,-11.2941)"
     inkscape:export-xdpi="90"
     inkscape:export-ydpi="90"><path
       d="m 48.576,12.183 c 0,-2.169 2.702,-2.426 2.702,-3.694 0,-0.57 -0.441,-1.048 -1.451,-1.048 -0.919,0 -1.691,0.441 -2.261,1.14 L 46.078,6.909 c 0.974,-1.158 2.444,-1.782 4.024,-1.782 2.372,0 3.823,1.194 3.823,2.903 0,2.683 -3.069,2.885 -3.069,4.429 0,0.293 0.147,0.606 0.349,0.771 l -2.021,0.588 c -0.388,-0.422 -0.608,-0.992 -0.608,-1.635 z m 0,4.098 c 0,-0.809 0.68,-1.488 1.488,-1.488 0.81,0 1.489,0.68 1.489,1.488 0,0.808 -0.679,1.488 -1.489,1.488 -0.809,0 -1.488,-0.68 -1.488,-1.488 z"
       id="path12"
       inkscape:connector-curvature="0" /></g><path
     style="fill:#d45500;fill-opacity:1;fill-rule:evenodd"
     d="m 52.396687,3.5457216 c -0.691818,-0.6918182 -0.195564,-2.1309568 1.242722,-3.60389533 1.805878,-1.84938697 1.702778,-2.90792797 -0.283228,-2.90792797 -0.721787,0 -1.661139,0.1866712 -2.087448,0.4148249 -0.563081,0.3013513 -0.91738,0.2433968 -1.295214,-0.2118644 -1.247702,-1.5033899 2.402238,-3.1775793 5.139555,-2.3574594 2.965102,0.8883663 3.323671,3.2122493 0.849173,5.50348619 -0.905179,0.83814191 -1.71775,1.90306021 -1.805713,2.36648561 -0.162732,0.857336 -1.2203,1.3358974 -1.759847,0.7963504 z"
     id="path4162"
     inkscape:connector-curvature="0"
     inkscape:export-xdpi="90"
     inkscape:export-ydpi="90" /><path
     style="fill:#d45500;fill-opacity:1;fill-rule:evenodd"
     d="M 52.608028,7.9661017 C 51.81307,7.1711444 52.010128,6.0176941 52.994259,5.7053428 54.306918,5.288721 55.299368,6.3986776 54.668382,7.5776844 54.130569,8.5825983 53.368238,8.7263125 52.608028,7.9661017 Z"
     id="path4164"
     inkscape:connector-curvature="0"
     inkscape:export-xdpi="90"
     inkscape:export-ydpi="90" /><path
     style="fill:#d45500;fill-opacity:1;fill-rule:evenodd"
     d="m 52.404552,7.5051645 c -0.335973,-0.8755326 0.320085,-1.6779255 1.228826,-1.5029179 1.125786,0.2168066 1.0429,1.8016061 -0.102775,1.965072 -0.494702,0.070585 -1.001425,-0.1373847 -1.126051,-0.4621541 z"
     id="path4166"
     inkscape:connector-curvature="0"
     inkscape:export-xdpi="90"
     inkscape:export-ydpi="90" /></svg>